<svg id="Capa_1" data-name="Capa 1" xmlns="http://www.w3.org/2000/svg" viewBox="0 0 487 452.2"><defs><style>.cls-1{fill:#007aff;}</style></defs><title>add-blue</title><g id="Icon_ionic-ios-create" data-name="Icon ionic-ios-create"><path id="Unión_4" data-name="Unión 4" class="cls-1" d="M63.8,452.23A63.82,63.82,0,0,1,0,388.43V145a63.82,63.82,0,0,1,63.8-63.8H325.56a4.37,4.37,0,0,1,3.05,7.39L168.2,248.93l-.86.87a17.47,17.47,0,0,0-5.1,12.29v45.14a17.47,17.47,0,0,0,17.38,17.38h45a17.43,17.43,0,0,0,12.29-5.1l.86-.87,160.6-160.41a4.37,4.37,0,0,1,7.4,3V388.41A63.84,63.84,0,0,1,342,452.23ZM191.15,304.3a8.6,8.6,0,0,1-8.58-8.58v-28.8a8.47,8.47,0,0,1,2.51-6.08L404.58,41.32a8.59,8.59,0,0,1,12.15,0h0l28.78,28.79a8.58,8.58,0,0,1,0,12.15h0L225.92,301.74a8.74,8.74,0,0,1-6.2,2.5Zm272.54-246L440.17,34.66,428.81,23.32a4.38,4.38,0,0,1,0-6.09L441.1,4.86A18.83,18.83,0,0,1,453.69,0,19.33,19.33,0,0,1,466.2,4.78l.2.22,15.66,15.66A19.65,19.65,0,0,1,487,33.36,18.58,18.58,0,0,1,482.17,46l-12.28,12.3a4.32,4.32,0,0,1-6.11.09h0l-.09-.09Z" transform="translate(0 -0.03)"/></g></svg>