<svg id="Capa_1" data-name="Capa 1" xmlns="http://www.w3.org/2000/svg" viewBox="0 0 482.78 482.67"><defs><style>.cls-1{fill:#999;}</style></defs><title>chat</title><g id="Icon_ionic-ios-chatbubbles" data-name="Icon ionic-ios-chatbubbles"><path id="Unión_2" data-name="Unión 2" class="cls-1" d="M21.82,480.74a9.29,9.29,0,0,1-3.14-8.93s13.34-69.88,13.8-72-1-5.22-3.71-9.28A170.84,170.84,0,0,1,0,295.38,172.73,172.73,0,0,1,59.79,165.45l9.29-8.25c-1.5,5.11-2.89,10.31-4.06,15.55-1.16,4.95-2,9.9-2.68,14.85a223.1,223.1,0,0,0-1.73,24.78C61,321.1,149.39,409,258.1,408.64h1a214.69,214.69,0,0,0,39.43-5.26c5.81-1.27,11.14-2.55,15.34-3.71,4.95-1.27,9.74-2.77,14-4.29-4.3,6-8,11.14-8,11.14a182.36,182.36,0,0,1-139.41,64A195.3,195.3,0,0,1,110,456.58a18.57,18.57,0,0,0-7.31-1.5,18.18,18.18,0,0,0-6.6,1.27L31,482a8.31,8.31,0,0,1-3.3.69A9.34,9.34,0,0,1,21.82,480.74Zm428.51-85.42L384.49,372a30.68,30.68,0,0,0-22.52-.33c-3.3,1.27-16.36,6-29.48,9.62a239.39,239.39,0,0,1-54.79,9C169,391.12,80.11,303.69,79.24,195v-1a186.55,186.55,0,0,1,4.29-39.62A200.2,200.2,0,0,1,281.18.05c109-2.32,199.28,84.18,201.6,193.2v.54a188.15,188.15,0,0,1-32,104.81,36.69,36.69,0,0,0-2.44,3.6,28.06,28.06,0,0,0-3.85,14.18l19,67.68a14.6,14.6,0,0,1,.58,3.14,9.24,9.24,0,0,1-9.19,9.29h-.09a15.85,15.85,0,0,1-4.54-1.19Z" transform="translate(0 0)"/></g></svg>