<svg id="Capa_1" data-name="Capa 1" xmlns="http://www.w3.org/2000/svg" viewBox="0 0 378.18 512"><defs><style>.cls-1{fill:#111;}</style></defs><title>bag-shop-black</title><path class="cls-1" d="M360.72,151.27H17.45A17.46,17.46,0,0,0,0,168.73V459.64A52.42,52.42,0,0,0,52.36,512H325.82a52.42,52.42,0,0,0,52.36-52.36V168.73A17.46,17.46,0,0,0,360.72,151.27ZM343.27,459.64a17.47,17.47,0,0,1-17.46,17.43H52.36a17.47,17.47,0,0,1-17.45-17.45V186.18H343.27Z" transform="translate(0 0)"/><path class="cls-1" d="M192,0A104.86,104.86,0,0,0,87.27,104.73V250.18a17.46,17.46,0,0,0,34.91.84q0-.42,0-.84V104.73a69.82,69.82,0,1,1,139.64-.07V250.18a17.46,17.46,0,0,0,34.91.84q0-.42,0-.84V104.73A104.86,104.86,0,0,0,192,0Z" transform="translate(0 0)"/></svg>