<svg id="Capa_1" data-name="Capa 1" xmlns="http://www.w3.org/2000/svg" xmlns:xlink="http://www.w3.org/1999/xlink" viewBox="0 0 427.42 413.6"><defs><style>.cls-1{fill:#fff;stroke:#706f6f;stroke-width:0.75px;}.cls-1,.cls-2,.cls-3,.cls-4,.cls-5,.cls-7{stroke-miterlimit:10;}.cls-2{fill:#009640;}.cls-2,.cls-3,.cls-4,.cls-5{stroke:#1d1d1b;}.cls-3{fill:#1d71b8;}.cls-4{fill:#f39200;}.cls-5{fill:#e84141;}.cls-6{fill:#3c3c3b;}.cls-7{fill:#009fe3;stroke:#36a9e1;stroke-width:2px;}.cls-8{fill:#575756;}.cls-9{fill:url(#Degradado_sin_nombre_22);}.cls-10{fill:url(#Degradado_sin_nombre_22-2);}.cls-11{fill:url(#Degradado_sin_nombre_22-3);}.cls-12{fill:url(#Degradado_sin_nombre_22-4);}</style><linearGradient id="Degradado_sin_nombre_22" x1="159.93" y1="136.7" x2="163.27" y2="134.31" gradientUnits="userSpaceOnUse"><stop offset="0" stop-color="#ec681c"/><stop offset="0.97" stop-color="#e52421"/></linearGradient><linearGradient id="Degradado_sin_nombre_22-2" x1="262.93" y1="66.8" x2="266.27" y2="64.41" xlink:href="#Degradado_sin_nombre_22"/><linearGradient id="Degradado_sin_nombre_22-3" x1="364.27" y1="31.91" x2="367.6" y2="29.52" xlink:href="#Degradado_sin_nombre_22"/><linearGradient id="Degradado_sin_nombre_22-4" x1="59.93" y1="8.13" x2="63.27" y2="5.74" xlink:href="#Degradado_sin_nombre_22"/></defs><title>created</title><rect class="cls-1" x="0.38" y="239.56" width="426.67" height="173.67" rx="24"/><rect class="cls-2" x="24.54" y="39.89" width="74" height="295.83" rx="24.67"/><rect class="cls-3" x="124.54" y="167.89" width="74" height="167.83" rx="24.67"/><rect class="cls-4" x="227.54" y="97.22" width="74" height="238.5" rx="24.67"/><rect class="cls-5" x="328.88" y="62.56" width="74" height="273.17" rx="24.67"/><rect class="cls-6" x="147.45" y="128.56" width="28.18" height="34.89" rx="7.25"/><line class="cls-7" x1="151.1" y1="140.87" x2="170.14" y2="140.87"/><line class="cls-7" x1="151.1" y1="145.33" x2="164.18" y2="145.33"/><line class="cls-7" x1="151.1" y1="149.8" x2="166.84" y2="149.8"/><rect class="cls-8" x="158.61" y="156.69" width="5.87" height="4.33" rx="2.16"/><ellipse class="cls-9" cx="161.54" cy="135.55" rx="2.01" ry="2.14"/><rect class="cls-6" x="250.45" y="58.67" width="28.18" height="34.89" rx="7.25"/><line class="cls-7" x1="254.1" y1="70.97" x2="273.14" y2="70.97"/><line class="cls-7" x1="254.1" y1="75.43" x2="267.18" y2="75.43"/><line class="cls-7" x1="254.1" y1="79.9" x2="269.84" y2="79.9"/><rect class="cls-8" x="261.61" y="86.79" width="5.87" height="4.33" rx="2.16"/><ellipse class="cls-10" cx="264.54" cy="65.65" rx="2.01" ry="2.14"/><rect class="cls-6" x="351.78" y="23.78" width="28.18" height="34.89" rx="7.25"/><line class="cls-7" x1="355.43" y1="36.08" x2="374.48" y2="36.08"/><line class="cls-7" x1="355.43" y1="40.55" x2="368.51" y2="40.55"/><line class="cls-7" x1="355.43" y1="45.01" x2="371.17" y2="45.01"/><rect class="cls-8" x="362.94" y="51.9" width="5.87" height="4.33" rx="2.16"/><ellipse class="cls-11" cx="365.88" cy="30.76" rx="2.01" ry="2.14"/><rect class="cls-6" x="47.45" width="28.18" height="34.89" rx="7.25"/><line class="cls-7" x1="51.1" y1="12.31" x2="70.14" y2="12.31"/><line class="cls-7" x1="51.1" y1="16.77" x2="64.18" y2="16.77"/><line class="cls-7" x1="51.1" y1="21.23" x2="66.84" y2="21.23"/><rect class="cls-8" x="58.61" y="28.13" width="5.87" height="4.33" rx="2.16"/><ellipse class="cls-12" cx="61.54" cy="6.98" rx="2.01" ry="2.14"/></svg>