<svg id="Capa_1" data-name="Capa 1" xmlns="http://www.w3.org/2000/svg" viewBox="0 0 482.66 482.71"><defs><style>.cls-1{fill:#6e6e6d;}</style></defs><title>chat</title><g id="Icon_ionic-ios-chatbubbles" data-name="Icon ionic-ios-chatbubbles"><path id="Unión_2" data-name="Unión 2" class="cls-1" d="M78.49,660.24a9.31,9.31,0,0,1-3.14-8.94s13.35-69.83,13.81-71.94-1-5.2-3.71-9.28a170.7,170.7,0,0,1-28.78-95.15A172.66,172.66,0,0,1,116.55,345.1l9.28-8.29c-1.51,5.11-2.92,10.33-4.06,15.55-1.16,4.88-2,9.87-2.67,14.92a222.23,222.23,0,0,0-1.66,24.87c.36,108.69,88.77,196.51,197.47,196.15h.85a214.09,214.09,0,0,0,39.46-5.22c5.8-1.28,11.14-2.56,15.31-3.72,4.88-1.27,9.75-2.78,14-4.29-4.29,6-8,11.14-8,11.14a182.18,182.18,0,0,1-139.33,63.93,194.92,194.92,0,0,1-70.43-13.92A18.26,18.26,0,0,0,152.9,636L87.77,661.62a8,8,0,0,1-3.32.69A9.49,9.49,0,0,1,78.49,660.24Zm428.37-85.4-65.79-23.33a30.63,30.63,0,0,0-22.5-.34c-3.31,1.27-16.36,6-29.47,9.63a239.26,239.26,0,0,1-54.7,8.93c-108.7.92-197.55-86.45-198.47-195.15,0-.33,0-.65,0-1a187.4,187.4,0,0,1,4.28-39.79A200.17,200.17,0,0,1,337.81,179.65c109-2.31,199.19,84.15,201.51,193.12,0,.22,0,.43,0,.64a188,188,0,0,1-32,104.79,37.78,37.78,0,0,0-2.44,3.59A28.17,28.17,0,0,0,501,496l19,67.65a15.18,15.18,0,0,1,.6,3.13,9.24,9.24,0,0,1-9.22,9.28h-.07A15.77,15.77,0,0,1,506.86,574.84Z" transform="translate(-56.67 -179.61)"/></g></svg>