<svg id="Capa_1" data-name="Capa 1" xmlns="http://www.w3.org/2000/svg" viewBox="0 0 487.3 420.32"><defs><style>.cls-1{fill:#6e6e6d;}</style></defs><title>credits</title><path id="Sustracción_1" data-name="Sustracción 1" class="cls-1" d="M506,631.05H90a35.67,35.67,0,0,1-35.63-35.64V360A35.67,35.67,0,0,1,90,324.41H505.92A35.85,35.85,0,0,1,541.65,360V595.41A35.67,35.67,0,0,1,506,631.05ZM112.09,441.7A28.87,28.87,0,1,0,141,470.57,28.88,28.88,0,0,0,112.09,441.7ZM478.61,296H117.29a14.22,14.22,0,0,1,0-28.42H478.61a14.22,14.22,0,1,1,.91,28.42Zm-31.25-56.85H148.54a13.16,13.16,0,0,1-13-13v-2.44a13,13,0,0,1,13-13H447.36a13,13,0,0,1,13,13v2.44A13.16,13.16,0,0,1,447.36,239.15Z" transform="translate(-54.35 -210.73)"/></svg>