<svg id="Capa_1" data-name="Capa 1" xmlns="http://www.w3.org/2000/svg" viewBox="0 0 482.79 482.79"><defs><style>.cls-1{fill:#6e6e6d;}</style></defs><title>explore</title><g id="Icon_ionic-ios-compass" data-name="Icon ionic-ios-compass"><path id="Trazado_13" data-name="Trazado 13" class="cls-1" d="M326.44,449.33l-56.86-56.86a2.46,2.46,0,0,0-3.46.12c-.09.11-.18.22-.26.34L208.42,507.25a2.38,2.38,0,0,0,.64,3.3,2.35,2.35,0,0,0,2.66,0L326,453.11a2.46,2.46,0,0,0,.4-3.78Z" transform="translate(-56.6 -179.49)"/><path id="Trazado_14" data-name="Trazado 14" class="cls-1" d="M298,179.49c-133.32,0-241.4,108.08-241.4,241.4S164.68,662.29,298,662.29s241.4-108.08,241.4-241.4-108-241.38-241.33-241.4Zm47.12,289.27L159.9,562.25a2.38,2.38,0,0,1-3.31-3.31l93.54-185.17a2.72,2.72,0,0,1,.81-.81l185.11-93.43a2.38,2.38,0,0,1,3.3,3.31L345.87,468A1.6,1.6,0,0,1,345.12,468.76Z" transform="translate(-56.6 -179.49)"/></g></svg>