<svg id="Capa_1" data-name="Capa 1" xmlns="http://www.w3.org/2000/svg" viewBox="0 0 482.65 482.71"><defs><style>.cls-1{fill:gray;}</style></defs><title>chat</title><g id="Icon_ionic-ios-chatbubbles" data-name="Icon ionic-ios-chatbubbles"><path id="Unión_2" data-name="Unión 2" class="cls-1" d="M21.82,480.63a9.31,9.31,0,0,1-3.14-8.94S32,401.86,32.49,399.75s-1-5.2-3.71-9.28A170.7,170.7,0,0,1,0,295.32,172.65,172.65,0,0,1,59.88,165.49l9.28-8.29c-1.51,5.11-2.92,10.33-4.06,15.55a149.58,149.58,0,0,0-2.67,14.92,222.39,222.39,0,0,0-1.66,24.87c.36,108.69,88.77,196.51,197.47,196.15h.85a214.09,214.09,0,0,0,39.46-5.22c5.8-1.28,11.14-2.56,15.31-3.72,4.88-1.27,9.75-2.78,14-4.29-4.29,6-8,11.14-8,11.14a182.18,182.18,0,0,1-139.33,63.93,194.92,194.92,0,0,1-70.43-13.92,18.3,18.3,0,0,0-13.87-.22L31.1,482a8.07,8.07,0,0,1-3.32.69A9.49,9.49,0,0,1,21.82,480.63Zm428.37-85.4L384.4,371.9a30.63,30.63,0,0,0-22.5-.34c-3.31,1.27-16.36,6-29.47,9.63a239.17,239.17,0,0,1-54.7,8.93C169,391,80.18,303.67,79.26,195v-1a187.4,187.4,0,0,1,4.28-39.79A200.17,200.17,0,0,1,281.14,0c109-2.31,199.19,84.15,201.51,193.12v.64a188.08,188.08,0,0,1-32,104.79,37.78,37.78,0,0,0-2.44,3.59,28.17,28.17,0,0,0-3.88,14.21l19,67.65a15.18,15.18,0,0,1,.6,3.13,9.24,9.24,0,0,1-9.2,9.28h-.09a16,16,0,0,1-4.45-1.22Z" transform="translate(0 0.01)"/></g></svg>