<svg id="Capa_1" data-name="Capa 1" xmlns="http://www.w3.org/2000/svg" viewBox="0 0 486.95 452.18"><defs><style>.cls-1{fill:#6e6e6d;}</style></defs><title>add</title><g id="Icon_ionic-ios-create" data-name="Icon ionic-ios-create"><path id="Unión_4" data-name="Unión 4" class="cls-1" d="M118.32,647a63.82,63.82,0,0,1-63.8-63.8V339.77A63.8,63.8,0,0,1,118.32,276H380.08a4.37,4.37,0,0,1,3.05,7.39L222.72,443.7l-.86.87a17.49,17.49,0,0,0-5.1,12.29V502a17.47,17.47,0,0,0,17.38,17.38h45a17.43,17.43,0,0,0,12.29-5.1l.86-.87L452.89,353a4.37,4.37,0,0,1,7.4,3V583.18A63.83,63.83,0,0,1,396.5,647ZM245.67,499.07a8.6,8.6,0,0,1-8.58-8.58v-28.8a8.46,8.46,0,0,1,2.51-6.08L459.1,236.09a8.6,8.6,0,0,1,12.16,0h0l28.78,28.79a8.59,8.59,0,0,1,0,12.16h0L280.44,496.51a8.76,8.76,0,0,1-6.2,2.5Zm272.54-246-23.52-23.64-11.36-11.34a4.38,4.38,0,0,1,0-6.09l12.29-12.37a18.84,18.84,0,0,1,12.59-4.86,19.32,19.32,0,0,1,12.51,4.78l.2.22,15.66,15.66a19.69,19.69,0,0,1,4.89,12.7,18.57,18.57,0,0,1-4.78,12.63L524.41,253.1a4.32,4.32,0,0,1-6.2,0Z" transform="translate(-54.52 -194.8)"/></g></svg>