<svg id="Capa_1" data-name="Capa 1" xmlns="http://www.w3.org/2000/svg" viewBox="0 0 170.25 170.25"><defs><style>.cls-1{fill:#999;}</style></defs><title>close-circle-icon</title><path id="Icon_ionic-ios-close-circle" data-name="Icon ionic-ios-close-circle" class="cls-1" d="M7199.5,7114.38a85.12,85.12,0,1,0,85.12,85.12,85.13,85.13,0,0,0-85.12-85.12Zm21.56,115.94-21.56-21.57-21.56,21.56a6.54,6.54,0,1,1-9.5-9l.25-.25,21.56-21.56-21.56-21.56a6.54,6.54,0,0,1,9.24-9.25l21.57,21.56,21.56-21.56a6.54,6.54,0,0,1,9.5,9l-.25.24-21.56,21.57,21.56,21.56a6.57,6.57,0,0,1,0,9.25,6.48,6.48,0,0,1-9.18.07Z" transform="translate(-7114.37 -7114.38)"/></svg>