<svg id="Capa_1" data-name="Capa 1" xmlns="http://www.w3.org/2000/svg" viewBox="0 0 669.19 232.39"><defs><style>.cls-1,.cls-2{fill:#878888;}.cls-2{font-size:182px;font-family:SegoeUI-Semibold, Segoe UI;font-weight:600;}.cls-3{letter-spacing:-0.01em;}</style></defs><title>image-bold-gray</title><path class="cls-1" d="M114.13,370.83H93.43a152.68,152.68,0,0,0,.36,19.37,52.72,52.72,0,0,0,.68,5.47c.65,3.4,1.55,6.66,2.19,10.05l.12.59A26.8,26.8,0,0,0,97.4,409c.7,2.29,1.25,4.76,1.89,6.9,4.09-.16,6.57-3.1,8.51-6.21a41.11,41.11,0,0,0,6-17.72c.24-2.46.59-4.86.61-7.34C114.4,380,114.1,375.39,114.13,370.83Z" transform="translate(-10.67 -271.34)"/><path class="cls-1" d="M113.64,362.61a5.5,5.5,0,0,0-.72-3.63l-2.82-6.3-.08-.16c-1-2.25-2-5.88-3.88-7.67a37.72,37.72,0,0,0-6.72-.18,1.21,1.21,0,0,0-.8.29,8.19,8.19,0,0,0-.75,2.17,85.36,85.36,0,0,0-3.47,15.48C100.81,362.91,107.23,362.64,113.64,362.61Z" transform="translate(-10.67 -271.34)"/><path class="cls-1" d="M95,326.9a88.28,88.28,0,0,0-10.2-9.71,12.22,12.22,0,0,0-3.37-2.13c-2.64-.92-5.49.07-8.15.91-7.54,2.4-15.66,3.59-23.3,1.55-1.86-.5-3.73-1.19-5.64-1a10.87,10.87,0,0,0-5,2.18c-11.46,8-17.74,21.79-23.22,35.05-.54,1.33-1.09,2.67-1.54,4a21.67,21.67,0,0,0-.91,3.82h71.9A90.31,90.31,0,0,1,95,326.9Z" transform="translate(-10.67 -271.34)"/><path class="cls-1" d="M37.09,298.07a21,21,0,0,0,1.58,2.39,17.75,17.75,0,0,0,2.52,2.38c3.38,2.83,7.7,7.41,12.52,5.86-.83-1.55-2.23-4.69-3.05-6.24-.74-1.39-1.51-2.94-1.21-4.5a1.91,1.91,0,0,1,.78-1.33,2.32,2.32,0,0,1,1.33-.22,3.81,3.81,0,0,1,2.35.63,4,4,0,0,1,1,1.41,70.42,70.42,0,0,1,3.86,8.72.85.85,0,0,0,.41.5.83.83,0,0,0,1.13-.36,79.92,79.92,0,0,1,5.47-8.43,13.36,13.36,0,0,1,2.61-3A4.79,4.79,0,0,1,72,294.77a1.18,1.18,0,0,1,.57.22,1.2,1.2,0,0,1,.34.56c.41,1.29-.32,2.66-1,3.79L66.57,308a.8.8,0,0,0,.8,1.22c5.92-1.32,12.81-2.66,17.13-7.53A28.92,28.92,0,0,0,87.09,298l2.13-3.3c1-1.47,2-3.3,1.28-4.94a1.58,1.58,0,0,0-.68-.84H34.41a9.26,9.26,0,0,0,.15,3.63A20.7,20.7,0,0,0,37.09,298.07Z" transform="translate(-10.67 -271.34)"/><path class="cls-1" d="M84,371.44c-.83-1.15-2.41-1.25-3.79-1.25l-63.71,0H13.09c-4.19,11.54-2.62,24.44,2.2,35.49A28.66,28.66,0,0,0,19,412.27a24.56,24.56,0,0,0,5.12,4.65c11.67,8.2,26.54,8.82,40.56,9.09,9.15.16,18.5.26,27-4.3a368.49,368.49,0,0,1-7-47.71A4.92,4.92,0,0,0,84,371.44Z" transform="translate(-10.67 -271.34)"/><text class="cls-2" transform="translate(115.46 154.72)">C<tspan class="cls-3" x="113.04" y="0">r</tspan><tspan x="178.8" y="0">edit!</tspan></text></svg>