<svg id="Capa_1" data-name="Capa 1" xmlns="http://www.w3.org/2000/svg" viewBox="0 0 482.8 482.8"><defs><style>.cls-1{fill:#999;}</style></defs><title>add</title><path id="Icon_ionic-ios-add-circle" data-name="Icon ionic-ios-add-circle" class="cls-1" d="M241.4,0C108.08,0,0,108.08,0,241.4S108.08,482.8,241.4,482.8,482.8,374.72,482.8,241.4,374.8,0,241.47,0Zm105,260H260v86.46a18.57,18.57,0,0,1-37.14,0V260H136.4a18.57,18.57,0,1,1,0-37.14h86.49V136.37a18.57,18.57,0,0,1,37.14,0v86.46h86.4a18.57,18.57,0,0,1,0,37.14Z" transform="translate(0 0)"/></svg>