<svg id="Capa_1" data-name="Capa 1" xmlns="http://www.w3.org/2000/svg" viewBox="0 0 367.16 369.04"><defs><style>.cls-1{fill:#a0a09f;}</style></defs><title>power</title><g id="Icon_ionic-ios-power" data-name="Icon ionic-ios-power"><path id="Trazado_5" data-name="Trazado 5" class="cls-1" d="M417,282a17.44,17.44,0,0,0-28.65,13.42c0,.45,0,.89.05,1.34a17.36,17.36,0,0,0,6.12,11.86,148.77,148.77,0,1,1-192.74,0,17.37,17.37,0,0,0,2.11-24.47l-.11-.13a17.4,17.4,0,0,0-24.48-2,181.41,181.41,0,0,0-64.82,138.76c-.63,101.38,81.06,184.07,182.45,184.7S481,524.32,481.59,422.94A183.61,183.61,0,0,0,417,282Z" transform="translate(-114.43 -236.35)"/><path id="Trazado_6" data-name="Trazado 6" class="cls-1" d="M298.87,437.6a17.68,17.68,0,0,0,17.68-17.68V254a17.68,17.68,0,0,0-35.36,0v165.9a17.68,17.68,0,0,0,17.68,17.68Z" transform="translate(-114.43 -236.35)"/></g></svg>