<svg id="Capa_1" data-name="Capa 1" xmlns="http://www.w3.org/2000/svg" viewBox="0 0 378.18 512"><defs><style>.cls-1{fill:#9faaad;}</style></defs><title>bag-shop-bluegray</title><path class="cls-1" d="M360.72,151.27H17.45A17.46,17.46,0,0,0,0,168.73V459.64A52.42,52.42,0,0,0,52.36,512H325.82a52.42,52.42,0,0,0,52.36-52.36V168.73A17.46,17.46,0,0,0,360.72,151.27ZM343.27,459.64a17.47,17.47,0,0,1-17.46,17.43H52.36a17.47,17.47,0,0,1-17.45-17.45V186.18H343.27Z" transform="translate(0 0)"/><path class="cls-1" d="M192,0C134.19.05,87.34,32.59,87.27,72.74v101c-.23,6.7,7.39,12.26,17,12.42S122,181,122.18,174.34V72.74c0-26.78,31.22-48.5,69.78-48.52s69.84,21.69,69.86,48.47V173.76c-.23,6.7,7.39,12.26,17,12.42s17.64-5.14,17.87-11.84V72.74C296.66,32.59,249.81.05,192,0Z" transform="translate(0 0)"/></svg>