<svg id="Capa_1" data-name="Capa 1" xmlns="http://www.w3.org/2000/svg" viewBox="0 0 332.7 467.56"><defs><style>.cls-1{fill:#a0a09f;}.cls-2{fill:#999;}</style></defs><title>calc</title><path id="Icon_ionic-ios-calculator" data-name="Icon ionic-ios-calculator" class="cls-1" d="M296.66,0H36A35.93,35.93,0,0,0,0,35.86V431.52a35.93,35.93,0,0,0,35.86,36H296.66a35.93,35.93,0,0,0,36-35.86V36A35.93,35.93,0,0,0,296.8,0h0ZM283.19,305.66h0a26.9,26.9,0,0,1-26.8,27h-.16a26.9,26.9,0,0,1-27-26.8v-.18h0a26.89,26.89,0,0,1,26.78-27h.2a26.9,26.9,0,0,1,27,26.8v0Zm0-89.9h0a26.9,26.9,0,0,1-26.8,27h-.16a26.91,26.91,0,0,1-27-26.82v-.14h0a26.91,26.91,0,0,1,26.82-27h.16a26.91,26.91,0,0,1,27,26.85Zm-89.88,89.9h0a26.9,26.9,0,0,1-26.8,27h-.2a26.9,26.9,0,0,1-27-26.8h0v-.14h0a26.89,26.89,0,0,1,26.78-27h.22a26.9,26.9,0,0,1,27,26.8v.15Zm0-89.9h0a26.9,26.9,0,0,1-26.8,27h-.2a26.9,26.9,0,0,1-27-26.8v-.16h0a26.89,26.89,0,0,1,26.78-27h.22a26.9,26.9,0,0,1,27,26.8v.16Zm0,179.8h0a26.9,26.9,0,0,1-26.8,27H74.81a25.57,25.57,0,0,1-25.4-25.71v-1.22h0a26.9,26.9,0,0,1,26.8-27h90a26.91,26.91,0,0,1,27,26.82h0Zm-89.9-89.9h0a26.9,26.9,0,0,1-26.8,27h-.16a26.9,26.9,0,0,1-27-26.8v-.18h0a26.89,26.89,0,0,1,26.78-27h.2a26.9,26.9,0,0,1,27,26.8v0Zm0-89.9h0a26.9,26.9,0,0,1-26.8,27h-.16a26.91,26.91,0,0,1-27-26.82v-.14h0a26.91,26.91,0,0,1,26.86-27h.14a26.91,26.91,0,0,1,27,26.82v0Zm-54-89.91V71.92a18,18,0,0,1,18-18H265.21a18,18,0,0,1,18,18v53.93a18,18,0,0,1-18,18H67.43A18,18,0,0,1,49.45,125.85Z" transform="translate(0.04 0.04)"/><path id="Icon_ionic-ios-calculator-2" data-name="Icon ionic-ios-calculator-2" class="cls-2" d="M296.66,0H36A35.93,35.93,0,0,0,0,35.86V431.52a35.93,35.93,0,0,0,35.86,36H296.66a35.93,35.93,0,0,0,36-35.86V36A35.93,35.93,0,0,0,296.8,0h0ZM283.19,305.66h0a26.9,26.9,0,0,1-26.8,27h-.16a26.9,26.9,0,0,1-27-26.8v-.18h0a26.89,26.89,0,0,1,26.78-27h.2a26.9,26.9,0,0,1,27,26.8v0Zm0-89.9h0a26.9,26.9,0,0,1-26.8,27h-.16a26.91,26.91,0,0,1-27-26.82v-.14h0a26.91,26.91,0,0,1,26.82-27h.16a26.91,26.91,0,0,1,27,26.85Zm-89.88,89.9h0a26.9,26.9,0,0,1-26.8,27h-.2a26.9,26.9,0,0,1-27-26.8h0v-.14h0a26.89,26.89,0,0,1,26.78-27h.22a26.9,26.9,0,0,1,27,26.8v.15Zm0-89.9h0a26.9,26.9,0,0,1-26.8,27h-.2a26.9,26.9,0,0,1-27-26.8v-.16h0a26.89,26.89,0,0,1,26.78-27h.22a26.9,26.9,0,0,1,27,26.8v.16Zm0,179.8h0a26.9,26.9,0,0,1-26.8,27H74.81a25.57,25.57,0,0,1-25.4-25.71v-1.22h0a26.9,26.9,0,0,1,26.8-27h90a26.91,26.91,0,0,1,27,26.82h0Zm-89.9-89.9h0a26.9,26.9,0,0,1-26.8,27h-.16a26.9,26.9,0,0,1-27-26.8v-.18h0a26.89,26.89,0,0,1,26.78-27h.2a26.9,26.9,0,0,1,27,26.8v0Zm0-89.9h0a26.9,26.9,0,0,1-26.8,27h-.16a26.91,26.91,0,0,1-27-26.82v-.14h0a26.91,26.91,0,0,1,26.86-27h.14a26.91,26.91,0,0,1,27,26.82v0Zm-54-89.91V71.92a18,18,0,0,1,18-18H265.21a18,18,0,0,1,18,18v53.93a18,18,0,0,1-18,18H67.43A18,18,0,0,1,49.45,125.85Z" transform="translate(0.04 0.04)"/></svg>