<svg id="Capa_1" data-name="Capa 1" xmlns="http://www.w3.org/2000/svg" viewBox="0 0 482.79 482.79"><defs><style>.cls-1{fill:#a0a09f;}</style></defs><title>cog</title><path id="Unión_1" data-name="Unión 1" class="cls-1" d="M56.6,420.89c0-133.32,108.08-241.4,241.4-241.4s241.4,108.08,241.4,241.4S431.32,662.29,298,662.29,56.63,554.28,56.6,421Zm93.66-147.74c-80.68,82.49-79.2,214.77,3.3,295.45,81.19,79.41,211,79.41,292.15,0,80.68-82.5,79.2-214.78-3.3-295.45C361.21,193.74,231.46,193.74,150.26,273.15ZM349.12,576.26A42.24,42.24,0,0,0,307,534.12,41.67,41.67,0,0,0,286,539.8L264.2,502.11a42.22,42.22,0,0,0,15.5-57.55,41.67,41.67,0,0,0-15.54-15.45l21.76-37.68a42.24,42.24,0,0,0,57.75-15.26l0,0a41.66,41.66,0,0,0,5.59-21.24h43.53a42.22,42.22,0,0,0,42.07,42.37h0a41.85,41.85,0,0,0,21.18-5.73l21.75,37.69a42.22,42.22,0,0,0-15.6,57.6,41.66,41.66,0,0,0,15.45,15.4l-21.77,37.68a42.23,42.23,0,0,0-57.59,15.35,41.64,41.64,0,0,0-5.61,21Zm-23-110.71A44.83,44.83,0,1,0,371,420.74h0A44.84,44.84,0,0,0,326.14,465.55ZM183,536.88a25.28,25.28,0,0,0-25.18-25.23,24.94,24.94,0,0,0-12.61,3.41l-13-22.55a25.28,25.28,0,0,0,9.28-34.45,25,25,0,0,0-9.3-9.26l13-22.55a25.26,25.26,0,0,0,34.51-9.07,24.87,24.87,0,0,0,3.3-12.71h26.1a25.28,25.28,0,0,0,25.18,25.35,25,25,0,0,0,12.68-3.43l13,22.54a25.27,25.27,0,0,0-9.33,34.48,24.9,24.9,0,0,0,9.25,9.23l-13,22.55a25.26,25.26,0,0,0-34.46,9.17,25,25,0,0,0-3.3,12.58Zm-13.74-66.24A26.82,26.82,0,1,0,196,443.82a26.82,26.82,0,0,0-26.82,26.82Zm61.71-59.85a32.7,32.7,0,0,0-32.6-32.65,32.29,32.29,0,0,0-16.27,4.37l-16.89-29.15a32.58,32.58,0,0,0,0-56.54l16.89-29.19a32.71,32.71,0,0,0,44.56-11.85,32.27,32.27,0,0,0,4.34-16.5h33.71a32.69,32.69,0,0,0,32.58,32.81h0a32.24,32.24,0,0,0,16.39-4.44l17,29.23a32.72,32.72,0,0,0-12.08,44.57,32.34,32.34,0,0,0,12,11.93l-16.86,29.2a32.7,32.7,0,0,0-44.56,11.88,32.33,32.33,0,0,0-4.34,16.28Zm-17.81-85.73a34.67,34.67,0,1,0,34.66-34.67,34.66,34.66,0,0,0-34.66,34.67Z" transform="translate(-56.6 -179.49)"/></svg>