<svg id="Capa_1" data-name="Capa 1" xmlns="http://www.w3.org/2000/svg" viewBox="0 0 512.28 512.28"><defs><style>.cls-1{fill:#999;}</style></defs><title>search</title><path class="cls-1" d="M505.75,475.59,360.15,330a201.72,201.72,0,0,0,45.22-127.32C405.37,90.93,314.37,0,202.67,0S0,90.93,0,202.67,90.93,405.34,202.67,405.34A201.71,201.71,0,0,0,330,360.15l145.6,145.6a21.33,21.33,0,1,0,30.72-29.6l-.56-.56ZM202.67,362.67c-88.23,0-160-71.76-160-160s71.77-160,160-160,160,71.77,160,160S290.91,362.67,202.67,362.67Z" transform="translate(0 0)"/></svg>