<svg id="Capa_1" data-name="Capa 1" xmlns="http://www.w3.org/2000/svg" viewBox="0 0 480.35 621.72"><defs><style>.cls-1{fill:#9faaad;}</style></defs><title>bag-bluegray</title><path class="cls-1" d="M479.23,371.28c-.15,20.68,1.26,41.71,1.11,62.39-.08,11.23-1.7,22.12-2.8,33.3a184,184,0,0,1-27.62,80.35c-9,14.09-20.46,27.42-39.4,28.16-3-9.71-5.53-20.91-8.76-31.32a117.8,117.8,0,0,1-2.91-12c-.17-.89-.35-1.79-.52-2.68-3-15.38-7.13-30.16-10.14-45.55a234.8,234.8,0,0,1-3.18-24.8,681.4,681.4,0,0,1-1.65-87.85h95.87Z" transform="translate(0 0)"/><path class="cls-1" d="M473.65,317.54c2.4,5.25,4.85,10.72,3.34,16.48-29.73.13-59.46,1.34-89.16,0a382.19,382.19,0,0,1,16.09-70.2c.48-1.42,2.14-8.91,3.46-9.83a6,6,0,0,1,3.7-1.34,179,179,0,0,1,31.14.83c8.61,8.13,13.38,24.6,18,34.8l.33.71Z" transform="translate(0 0)"/><path class="cls-1" d="M343.24,128.08a407.24,407.24,0,0,1,47.25,44,403.5,403.5,0,0,0-43.56,157.41h-333a93,93,0,0,1,4.2-17.33c2.08-6.21,4.62-12.29,7.15-18.31C50.63,233.71,79.74,171,132.82,134.92c7-4.76,14.65-9.08,23-9.89,8.85-.87,17.53,2.26,26.14,4.52,35.38,9.25,73,3.85,107.92-7,12.34-3.81,25.54-8.3,37.76-4.13C333.39,120.46,338.41,124.24,343.24,128.08Z" transform="translate(0 0)"/><path class="cls-1" d="M369.79,3.82c3.08,7.46-1.52,15.73-5.94,22.43L354,41.17a134.6,134.6,0,0,1-12,16.4C322,79.63,290.08,85.7,262.65,91.7a3.63,3.63,0,0,1-3.7-5.55q12.23-19.5,24.43-39C286.63,42,290,35.8,288.12,29.93a5.22,5.22,0,0,0-1.58-2.53,5.54,5.54,0,0,0-2.62-1c-5.91-.89-11.94,1.43-16.74,5.1s-8.54,8.59-12.09,13.55c-9.63,13.46-17.86,24.51-25.35,38.23a3.87,3.87,0,0,1-7.11-.63c-4.72-14-10.95-25.5-17.86-39.54-1.16-2.37-2.42-4.79-4.45-6.43-3-2.42-7.08-2.67-10.89-2.82-2.11-.08-4.35-.13-6.18,1-2.05,1.21-3.17,3.62-3.63,6-1.35,7.1,2.19,14.12,5.61,20.43,3.81,7,10.32,21.26,14.13,28.29-22.32,7-42.31-13.74-58-26.57a83.33,83.33,0,0,1-11.65-10.8,85.17,85.17,0,0,1-7.3-10.86c-4.73-7.87-9.54-16-11.73-24.88A39.77,39.77,0,0,1,110,0H366.62A7.35,7.35,0,0,1,369.79,3.82Z" transform="translate(0 0)"/><path class="cls-1" d="M342.64,385.65A1640,1640,0,0,0,375.15,602C336,622.67,292.7,622.22,250.31,621.46c-64.93-1.18-133.79-4-187.87-41.19-8.7-6-16.94-12.82-23.68-21.08C31.5,550.32,26.1,540,21.4,529.43-.89,479.32-8.19,420.82,11.22,368.51h15.6l295.12-.14c6.37,0,13.7.46,17.56,5.69C341.89,377.29,342.3,381.59,342.64,385.65Z" transform="translate(0 0)"/></svg>