<svg id="Capa_1" data-name="Capa 1" xmlns="http://www.w3.org/2000/svg" viewBox="0 0 507.86 569.99"><defs><style>.cls-1{fill:#6e6e6d;}</style></defs><title>calc</title><path id="Icon_ionic-ios-calculator" data-name="Icon ionic-ios-calculator" class="cls-1" d="M497,136.15H99A50.25,50.25,0,0,0,44.07,180V661.83A50.25,50.25,0,0,0,99,705.63H497a50.25,50.25,0,0,0,54.9-43.8V180A50.25,50.25,0,0,0,497,136.15ZM476.34,508.5c0,12.8-16.42,29.93-41.18,32.85A40.1,40.1,0,0,1,394,508.5a37.65,37.65,0,0,1,41.18-32.85h0A37.64,37.64,0,0,1,476.34,508.5Zm0-109.5h0a37.63,37.63,0,0,1-41.06,32.89h0A37.64,37.64,0,0,1,394.1,399h0a37.64,37.64,0,0,1,41.18-32.85h0A37.65,37.65,0,0,1,476.34,399ZM339.1,618h0A37.64,37.64,0,0,1,298,650.88h0A37.64,37.64,0,0,1,256.84,618h0A37.64,37.64,0,0,1,298,585.18h0A37.64,37.64,0,0,1,339.2,618Zm0-109.49h0A37.63,37.63,0,0,1,298,541.38h0a37.63,37.63,0,0,1-41.18-32.84h0A37.64,37.64,0,0,1,298,475.69h0A37.64,37.64,0,0,1,339.2,508.5Zm0-109.5h0A37.64,37.64,0,0,1,298,431.89h0A37.64,37.64,0,0,1,256.84,399h0A37.64,37.64,0,0,1,298,366.19h0A37.64,37.64,0,0,1,339.2,399ZM201.86,618h0a37.64,37.64,0,0,1-41.1,32.89h0A37.64,37.64,0,0,1,119.58,618h0a37.64,37.64,0,0,1,41.18-32.85h0A37.64,37.64,0,0,1,201.94,618Zm0-109.49h0a37.63,37.63,0,0,1-41.1,32.88h0a37.63,37.63,0,0,1-41.18-32.84h0a37.64,37.64,0,0,1,41.18-32.85h0a37.64,37.64,0,0,1,41.18,32.81Zm0-109.5h0a37.64,37.64,0,0,1-41.1,32.89h0A37.64,37.64,0,0,1,119.58,399h0a37.64,37.64,0,0,1,41.18-32.85h0A37.64,37.64,0,0,1,201.94,399ZM119.5,289.51V223.77a25.23,25.23,0,0,1,27.38-21.9H449a25.22,25.22,0,0,1,27.37,21.9v65.72A25.22,25.22,0,0,1,449,311.39H147a25.23,25.23,0,0,1-27.45-21.92Z" transform="translate(-44.07 -135.9)"/></svg>