<?xml version="1.0" standalone="no"?>
<!DOCTYPE svg PUBLIC "-//W3C//DTD SVG 20010904//EN"
 "http://www.w3.org/TR/2001/REC-SVG-20010904/DTD/svg10.dtd">
<svg version="1.0" xmlns="http://www.w3.org/2000/svg"
 width="622.000000pt" height="622.000000pt" viewBox="0 0 622.000000 622.000000"
 preserveAspectRatio="xMidYMid meet">
<metadata>
Created by potrace 1.11, written by Peter Selinger 2001-2013
</metadata>
<g transform="translate(0.000000,622.000000) scale(0.100000,-0.100000)"
fill="#000000" stroke="none">
<path d="M1916 6148 c2 -64 8 -107 14 -115 2 -2 3 -6 5 -10 4 -14 17 -48 28
-73 25 -54 138 -237 164 -265 50 -55 342 -295 358 -295 4 0 19 -8 33 -19 52
-36 140 -60 212 -57 38 1 72 4 75 7 3 3 -31 77 -74 165 -113 225 -120 243
-117 303 4 74 30 94 112 89 36 -2 72 -11 88 -21 30 -20 158 -271 216 -427 18
-48 29 -60 54 -60 16 0 29 13 46 43 59 107 241 367 307 440 32 36 86 79 103
83 3 0 14 5 25 9 34 15 103 11 121 -7 35 -35 12 -124 -57 -225 -16 -23 -29
-46 -29 -51 0 -6 -3 -12 -8 -14 -7 -3 -153 -232 -161 -253 -2 -5 -10 -18 -18
-27 -16 -18 -10 -53 11 -61 8 -3 31 -2 52 3 22 5 50 11 64 13 138 26 344 91
455 145 167 81 244 159 418 425 111 170 133 241 93 302 l-16 25 -1289 0 -1288
0 3 -72z"/>
<path d="M3825 5025 c-224 -63 -335 -94 -361 -99 -16 -3 -40 -7 -54 -10 -196
-40 -498 -50 -637 -21 -12 3 -35 7 -50 10 -16 3 -84 19 -152 36 -97 25 -137
30 -187 26 -200 -16 -530 -292 -781 -653 -78 -111 -191 -298 -229 -378 -14
-28 -37 -73 -52 -101 -15 -27 -40 -79 -56 -115 -16 -36 -46 -101 -66 -145 -63
-137 -77 -167 -134 -306 -60 -146 -106 -295 -102 -325 3 -19 46 -19 1655 -19
909 0 1656 2 1661 5 4 3 11 41 14 85 4 44 8 91 10 105 3 14 7 48 10 75 3 28 8
61 10 75 3 14 10 54 16 90 32 193 135 576 180 675 5 11 19 47 31 80 11 33 31
80 42 105 12 25 22 50 23 55 1 6 25 59 54 119 l51 109 -138 136 c-76 75 -167
161 -203 191 -36 29 -69 59 -75 64 -22 23 -123 95 -170 122 -69 39 -193 42
-310 9z"/>
<path d="M4938 3692 c-20 -2 -41 -9 -47 -16 -9 -10 -71 -201 -87 -266 -2 -8
-8 -33 -14 -55 -23 -85 -54 -225 -65 -295 -4 -22 -9 -53 -20 -115 -2 -11 -4
-24 -5 -30 -10 -44 -26 -42 428 -39 235 1 435 2 445 3 13 1 17 10 17 35 0 49
-12 80 -136 344 -24 52 -44 98 -44 103 0 5 -4 17 -9 27 -5 9 -18 37 -29 62
-83 189 -120 240 -181 241 -20 0 -76 1 -126 2 -49 1 -107 1 -127 -1z"/>
<path d="M603 3554 c-7 -20 11 -38 31 -31 17 7 18 27 1 39 -16 12 -25 9 -32
-8z"/>
<path d="M950 2529 c-19 -4 -32 -7 -28 -8 4 0 1 -16 -7 -34 -16 -38 -61 -214
-69 -267 -24 -170 -26 -190 -26 -325 0 -117 5 -205 16 -275 2 -19 7 -57 10
-85 3 -27 9 -54 12 -60 3 -5 7 -18 8 -30 10 -90 88 -340 150 -485 40 -93 96
-199 140 -266 35 -53 158 -185 210 -224 157 -120 363 -227 573 -297 57 -19
111 -36 120 -38 9 -1 34 -8 56 -13 82 -22 278 -59 347 -66 29 -3 63 -8 75 -10
12 -3 62 -8 110 -11 48 -4 102 -9 118 -11 193 -25 1088 -25 1235 1 14 2 57 9
95 15 135 21 299 73 418 132 47 23 57 32 52 48 -3 10 -8 29 -10 42 -3 13 -9
43 -15 68 -11 51 -18 85 -30 150 -5 25 -13 65 -19 90 -5 25 -12 61 -16 80 -3
19 -7 46 -10 60 -3 14 -7 39 -10 55 -3 17 -7 41 -10 55 -7 35 -36 200 -40 230
-2 14 -9 59 -15 100 -7 41 -14 89 -16 105 -2 17 -8 55 -14 85 -5 30 -11 75
-14 100 -3 25 -8 63 -11 85 -3 22 -8 56 -11 75 -3 19 -7 49 -9 65 -3 17 -7 55
-10 85 -3 30 -7 71 -9 90 -2 19 -7 62 -11 95 -4 33 -8 74 -10 90 -6 49 -22
216 -30 314 -10 124 -37 170 -108 188 -31 7 -3144 9 -3187 2z"/>
<path d="M4652 2491 c-8 -22 -7 -535 2 -681 11 -172 21 -287 31 -340 2 -14 6
-41 9 -60 6 -46 29 -154 60 -277 13 -54 27 -115 30 -137 4 -21 8 -42 11 -46 2
-4 7 -25 10 -46 2 -21 12 -64 20 -94 9 -30 18 -62 20 -70 2 -8 15 -58 30 -110
14 -52 30 -111 35 -131 8 -29 14 -36 32 -34 90 6 174 49 252 129 77 79 80 83
138 180 26 45 52 86 58 93 5 7 10 15 10 18 0 4 14 37 31 73 64 137 128 344
144 462 3 25 8 56 10 70 3 14 7 50 10 80 3 30 8 69 11 85 8 39 10 541 4 715
l-5 135 -474 0 c-412 1 -474 -1 -479 -14z"/>
</g>
</svg>
