<svg id="Capa_1" data-name="Capa 1" xmlns="http://www.w3.org/2000/svg" viewBox="0 0 483.26 496.24"><defs><style>.cls-1{fill:#999;}</style></defs><title>credits</title><g id="Icon_ionic-ios-wallet" data-name="Icon ionic-ios-wallet"><path id="Unión_1" data-name="Unión 1" class="cls-1" d="M75.88,496.19A66.19,66.19,0,0,1,7.22,432.9V255.69A66.19,66.19,0,0,1,75.88,192.4H414.6a66.19,66.19,0,0,1,68.64,63.29V432.9a66.19,66.19,0,0,1-68.64,63.29ZM71,143.69l272.74-65A48.83,48.83,0,0,1,393.89,97,92.49,92.49,0,0,1,410,150.19v29H76.81C37.37,179.19,5.69,225,5.69,225c0-31.15,44.38-75.59,65.28-81.26Zm-22.46-13.5L297.31,8a51.13,51.13,0,0,1,54.86,0c17.3,11.22,18.45,24.41,23.14,41.68l2.44,11.93-319,80.93C24.09,158.8,1.55,211.8,1.55,211.8-8.2,181.33,29.8,141,48.5,130.23Z" transform="translate(0.02 0)"/></g></svg>