<svg id="Capa_1" data-name="Capa 1" xmlns="http://www.w3.org/2000/svg" viewBox="0 0 484.55 629.92"><defs><style>.cls-1{fill:#999;}</style></defs><title>hand</title><path id="Icon_ionic-ios-hand" data-name="Icon ionic-ios-hand" class="cls-1" d="M507.86,210.85a31.69,31.69,0,0,0-31.93,31.26V407.72a13.48,13.48,0,1,1-27,0V163.31a32,32,0,0,0-63.88,0v192a13.48,13.48,0,1,1-26.95,0h0V137.11a32,32,0,0,0-63.89,0V381.45a13.48,13.48,0,1,1-26.95,0h0v-192a32,32,0,0,0-63.88,0V520l-42.09-35.72c-39.51-34.45-73-49.05-100.23-23.68-18.32,17.87,10.45,46.78,40.57,80.54,29.06,32.55,106,139.13,171.51,177.58a118.23,118.23,0,0,0,61.47,17.23h86.59c69.78,0,118.67-57.38,118.67-141.09V242.11A31.92,31.92,0,0,0,507.86,210.85Z" transform="translate(-55.36 -105.98)"/></svg>