<svg id="Capa_1" data-name="Capa 1" xmlns="http://www.w3.org/2000/svg" viewBox="0 0 465.21 505.03"><defs><style>.cls-1{fill:#e94e1b;}.cls-1,.cls-2,.cls-3,.cls-4{stroke:#1d1d1b;stroke-miterlimit:10;}.cls-2{fill:#ededed;stroke-width:2px;}.cls-3{fill:#f9b233;}.cls-4{fill:#59b358;}.cls-5{fill:#1d71b8;}.cls-6{fill:#f6f6f6;}</style></defs><title>adquire</title><rect class="cls-1" x="136.2" y="162.71" width="363.01" height="196.27" rx="16.63" transform="translate(-166.56 165.58) rotate(-37.15)"/><rect class="cls-2" x="1" y="171.16" width="463.21" height="332.88" rx="27.4"/><rect class="cls-3" x="51.1" y="197.95" width="363.01" height="196.27" rx="16.63"/><rect class="cls-2" x="1" y="244.35" width="463.21" height="194.82" rx="27.4"/><rect class="cls-4" x="51.1" y="257.27" width="363.01" height="196.27" rx="16.63"/><rect class="cls-2" x="1" y="309.21" width="463.21" height="194.82" rx="27.4"/><path class="cls-5" d="M304.34,441.45c-29.08,0-52.74,24.88-52.74,55.46s23.66,55.46,52.74,55.46,52.74-24.88,52.74-55.46S333.42,441.45,304.34,441.45Z" transform="translate(-73.51 -79.19)"/><path class="cls-6" d="M331.07,485.16l-28.57,30a4.25,4.25,0,0,1-6.21,0l-14.28-15a4.79,4.79,0,0,1,0-6.54,4.23,4.23,0,0,1,6.21,0l11.18,11.75,25.45-26.77a4.24,4.24,0,0,1,6.22,0A4.79,4.79,0,0,1,331.07,485.16Z" transform="translate(-73.51 -79.19)"/></svg>