<svg id="Capa_1" data-name="Capa 1" xmlns="http://www.w3.org/2000/svg" xmlns:xlink="http://www.w3.org/1999/xlink" viewBox="0 0 512 450.81"><defs><style>.cls-1{fill:url(#Degradado_sin_nombre_15);}.cls-2{fill:url(#Degradado_sin_nombre_15-2);}.cls-3{fill:#fff;}</style><linearGradient id="Degradado_sin_nombre_15" x1="71.6" y1="418.24" x2="523.58" y2="418.24" gradientUnits="userSpaceOnUse"><stop offset="0" stop-color="#009fe3"/><stop offset="1" stop-color="#376bb3"/></linearGradient><linearGradient id="Degradado_sin_nombre_15-2" x1="41.64" y1="420.94" x2="553.64" y2="420.94" xlink:href="#Degradado_sin_nombre_15"/></defs><title>chat</title><path class="cls-1" d="M468.51,282.58c35.51,32.47,55.07,76.15,55.07,123,0,87-70.43,180.64-225.09,180.64-29.42,0-60.19-4.35-86.63-12.26l-9.42-2.82-6.36,7.51A106.34,106.34,0,0,1,149,610.88a118.49,118.49,0,0,0,12-49l.23-8.74-7.49-4.52c-67-40.45-95.5-106-76.18-175.44,20.44-73.44,96.69-147.55,221-147.55C368.93,225.59,427.72,245.3,468.51,282.58Z" transform="translate(-41.64 -195.54)"/><path class="cls-2" d="M553.64,405.6a193.28,193.28,0,0,1-16.29,77.84,200.38,200.38,0,0,1-48.68,67.74c-46.49,42.6-112.25,65.12-190.18,65.12a345.93,345.93,0,0,1-86.07-10.95,134.43,134.43,0,0,1-96.26,41H79.88l25.66-25.65a86.79,86.79,0,0,0,24.79-51.34c-36.09-23.69-62.49-54.85-76.62-90.59s-15.89-75-5.13-113.69C61.5,318.69,91.78,276.4,133.87,246c45.72-33,102.65-50.47,164.62-50.47,78.07,0,143.88,22.43,190.3,64.86C530.61,298.63,553.64,350.19,553.64,405.6Zm-30.06,0c0-46.87-19.56-90.55-55.07-123-40.79-37.28-99.58-57-170-57C174.23,225.59,98,299.7,77.54,373.14c-19.32,69.41,9.16,135,76.18,175.44l7.49,4.52-.23,8.74a118.49,118.49,0,0,1-12,49,106.34,106.34,0,0,0,47.07-32.21l6.36-7.51,9.42,2.82c26.44,7.91,57.21,12.26,86.63,12.26C453.15,586.24,523.58,492.6,523.58,405.6Z" transform="translate(-41.64 -195.54)"/><circle class="cls-3" cx="161.03" cy="195.07" r="30.33"/><circle class="cls-3" cx="255.96" cy="195.07" r="30.33"/><circle class="cls-3" cx="349.36" cy="195.07" r="30.33"/></svg>