<svg id="Capa_1" data-name="Capa 1" xmlns="http://www.w3.org/2000/svg" viewBox="0 0 487.28 420.34"><defs><style>.cls-1{fill:#007aff;}</style></defs><title>credits-blue</title><path id="Sustracción_1" data-name="Sustracción 1" class="cls-1" d="M451.65,420.32h-416A35.67,35.67,0,0,1,0,384.68V149.27a35.67,35.67,0,0,1,35.63-35.59H451.57a35.85,35.85,0,0,1,35.73,35.59V384.68A35.67,35.67,0,0,1,451.65,420.32ZM57.74,231a28.87,28.87,0,1,0,28.91,28.87A28.88,28.88,0,0,0,57.74,231ZM424.26,85.27H62.94a14.22,14.22,0,0,1,0-28.42H424.26a14.22,14.22,0,1,1,1.46,28.4l-.55,0ZM393,28.42H94.19a13.17,13.17,0,0,1-13-13V13a13,13,0,0,1,13-13H393a13,13,0,0,1,13,13v2.44A13.17,13.17,0,0,1,393,28.42Z" transform="translate(-0.02 0.02)"/></svg>