<svg id="Capa_1" data-name="Capa 1" xmlns="http://www.w3.org/2000/svg" viewBox="0 0 482.79 482.79"><defs><style>.cls-1{fill:#a5a4a4;}</style></defs><title>close-icon</title><path id="Icon_ionic-ios-close-circle" data-name="Icon ionic-ios-close-circle" class="cls-1" d="M298,179.49c-133.32,0-241.4,108.08-241.4,241.4S164.68,662.29,298,662.29s241.4-108.08,241.4-241.4-108-241.38-241.33-241.4Zm61.15,328.8L298,447.12l-61.15,61.15a18.55,18.55,0,0,1-26.94-25.52c.23-.24.47-.48.71-.71l61.15-61.15-61.15-61.15a18.55,18.55,0,0,1,26.23-26.23L298,394.66l61.15-61.15A18.55,18.55,0,1,1,386.09,359c-.23.24-.47.48-.71.71l-61.15,61.15L385.38,482a18.64,18.64,0,0,1,0,26.23,18.42,18.42,0,0,1-26.05.2Z" transform="translate(-56.6 -179.49)"/></svg>