<svg id="Capa_1" data-name="Capa 1" xmlns="http://www.w3.org/2000/svg" viewBox="0 0 171.57 111.54"><defs><style>.cls-1{fill:#fe4949;}</style></defs><title>p2p</title><g id="Icon_ionic-ios-people" data-name="Icon ionic-ios-people"><path id="Trazado_1" data-name="Trazado 1" class="cls-1" d="M7235.07,7229.65c-4.28-1.53-11.27-1.63-14.37-2.79a20.27,20.27,0,0,1-6.64-3.1,40.9,40.9,0,0,1-1.09-10.86,17.9,17.9,0,0,0,3.81-5.35,60.37,60.37,0,0,0,1.83-10.51s2.52,1.09,3.51-4c.85-4.35,2.45-6.65,2-9.86s-2.22-2.45-2.22-2.45a28.56,28.56,0,0,0,2.22-14.29,22.86,22.86,0,0,0-23.08-22.65c-.54,0-1.07,0-1.6.07a23,23,0,0,0-24.7,21c0,.49-.06,1-.07,1.49a29,29,0,0,0,2.18,14.29s-1.8-.77-2.22,2.44,1.15,5.55,2,9.9c1,5.08,3.51,4,3.51,4a60.37,60.37,0,0,0,1.83,10.51,17.72,17.72,0,0,0,3.81,5.35,41.32,41.32,0,0,1-1.09,10.86,19.46,19.46,0,0,1-6.65,3.06c-3.05,1.19-10,1.34-14.36,2.87a27,27,0,0,0-17.5,25.67h106.3A26.89,26.89,0,0,0,7235.07,7229.65Z" transform="translate(-7113.71 -7143.82)"/><path id="Trazado_2" data-name="Trazado 2" class="cls-1" d="M7155.18,7211a26,26,0,0,0,12.76-3.56c-5.93-9-2.72-19.45-3.94-29.23a16.11,16.11,0,0,0-16.54-15.68c-.44,0-.87,0-1.3.09H7146a16.17,16.17,0,0,0-17.62,14.57c0,.34-.06.69-.07,1-1.22,9.74,2.17,21.4-3.9,29.23a24,24,0,0,0,12.8,3.17h0a19.24,19.24,0,0,1-.38,6.42,9.57,9.57,0,0,1-4.59,2.1,91.72,91.72,0,0,0-9.89,2.75,16.09,16.09,0,0,0-8.64,14.22h30.69a27.49,27.49,0,0,1,12.23-11.41,25.5,25.5,0,0,1,9.44-2s1.45-2.29-3.33-3.18a32.18,32.18,0,0,1-7.33-2.55C7154.68,7216.2,7155.18,7211,7155.18,7211Z" transform="translate(-7113.71 -7143.82)"/><path id="Trazado_3" data-name="Trazado 3" class="cls-1" d="M7243.82,7211a26,26,0,0,1-12.76-3.56c5.93-9,2.72-19.45,3.94-29.23a16.11,16.11,0,0,1,16.54-15.68c.44,0,.87,0,1.3.09h.16a16.17,16.17,0,0,1,17.62,14.57c0,.34.06.69.07,1,1.22,9.74-2.17,21.4,3.9,29.23a24,24,0,0,1-12.8,3.17h0a19.24,19.24,0,0,0,.38,6.42,9.58,9.58,0,0,0,4.58,2.1,91.25,91.25,0,0,1,9.9,2.75,16.09,16.09,0,0,1,8.64,14.22H7254.6a27.49,27.49,0,0,0-12.23-11.41,25.5,25.5,0,0,0-9.44-2s-1.45-2.29,3.33-3.18a32.18,32.18,0,0,0,7.33-2.55C7244.32,7216.2,7243.82,7211,7243.82,7211Z" transform="translate(-7113.71 -7143.82)"/></g></svg>