<svg id="Capa_1" data-name="Capa 1" xmlns="http://www.w3.org/2000/svg" viewBox="0 0 378.18 512"><defs><style>.cls-1{fill:#fff;}</style></defs><title>bag-shop</title><path class="cls-1" d="M469.27,299.2H126a17.46,17.46,0,0,0-17.45,17.46V607.57a52.42,52.42,0,0,0,52.36,52.36H434.37a52.42,52.42,0,0,0,52.36-52.36V316.66A17.46,17.46,0,0,0,469.27,299.2ZM451.82,607.57A17.47,17.47,0,0,1,434.36,625H160.91a17.47,17.47,0,0,1-17.45-17.45V334.11H451.82Z" transform="translate(-108.55 -147.93)"/><path class="cls-1" d="M300.55,147.93A104.85,104.85,0,0,0,195.82,252.66V398.11a17.46,17.46,0,1,0,34.91,0V252.66a69.82,69.82,0,1,1,139.64,0V398.11a17.46,17.46,0,1,0,34.91,0V252.66A104.86,104.86,0,0,0,300.55,147.93Z" transform="translate(-108.55 -147.93)"/></svg>