<svg id="Capa_1" data-name="Capa 1" xmlns="http://www.w3.org/2000/svg" viewBox="0 0 483.96 528.02"><defs><style>.cls-1{fill:#999;}</style></defs><title>dark</title><path id="Icon_ionic-ios-moon" data-name="Icon ionic-ios-moon" class="cls-1" d="M497.91,555.85c-3.91.14-8,.27-12,.27A242.45,242.45,0,0,1,311.7,482.8a250.46,250.46,0,0,1-72.35-177.08,253.61,253.61,0,0,1,24-108.21,360.35,360.35,0,0,1,18.69-32.17,5.41,5.41,0,0,0-5.35-8.38A264.7,264.7,0,0,0,56,419.56C54.94,565,172,683.8,317.39,684.9a259.17,259.17,0,0,0,199.23-93.62,251.1,251.1,0,0,0,22.55-30,5.56,5.56,0,0,0-5.64-8.39A234.78,234.78,0,0,1,497.91,555.85Z" transform="translate(-56.03 -156.88)"/></svg>