<svg id="Capa_1" data-name="Capa 1" xmlns="http://www.w3.org/2000/svg" viewBox="0 0 482.8 482.8"><defs><style>.cls-1{fill:#999;}</style></defs><title>helpp</title><g id="Icon_ionic-ios-help-circle-outline" data-name="Icon ionic-ios-help-circle-outline"><path id="Unión_6" data-name="Unión 6" class="cls-1" d="M0,241.4C0,108.11,108,0,241.3,0h.1C374.7,0,482.78,108,482.8,241.34v.06c0,133.3-108,241.38-241.34,241.4h-.06C108.1,482.8,0,374.8,0,241.46ZM93.67,93.66C12,175.24,12,307.58,93.54,389.23s213.92,81.71,295.57.13,81.71-213.92.13-295.57a209,209,0,0,0-295.57-.13Zm118,235.24A24.3,24.3,0,0,1,236.36,305h0a24.27,24.27,0,0,1,25,23.5v.4a24.26,24.26,0,0,1-24.6,23.92h-.34a24.15,24.15,0,0,1-24.75-23.54v0a2.23,2.23,0,0,1,0-.36Zm4.06-44.2-.35-9.91a48.32,48.32,0,0,1,27.39-51.07c19.61-11.72,27.86-19.14,27.86-33.54a28.18,28.18,0,0,0-31-25h-.2a29.37,29.37,0,0,0-31,27.61,6.63,6.63,0,0,1-.05,1H167c.83-37.37,28.44-63.72,75.1-63.72,43.51,0,73.45,24.15,73.45,58.85A56.74,56.74,0,0,1,283,240.43c-20.19,11.72-27,20.32-27,35.16v9.17Z" transform="translate(0 0)"/></g></svg>