<svg id="Capa_1" data-name="Capa 1" xmlns="http://www.w3.org/2000/svg" viewBox="0 0 661.04 232.39"><defs><style>.cls-1{fill:#111;}.cls-2{font-size:182px;fill:#111110;font-family:SegoeUI-Semibold, Segoe UI;font-weight:600;}.cls-3{letter-spacing:-0.01em;}</style></defs><title>image-bold</title><path class="cls-1" d="M109.15,370.83H90.08a164.7,164.7,0,0,0,.33,19.37q.18,2.76.63,5.47c.6,3.4,1.42,6.66,2,10.05,0,.2.07.39.11.59a26.62,26.62,0,0,0,.58,2.65c.64,2.29,1.14,4.76,1.74,6.9,3.77-.16,6-3.1,7.84-6.21a43.63,43.63,0,0,0,5.49-17.72c.22-2.46.54-4.86.56-7.34C109.4,380,109.12,375.39,109.15,370.83Z" transform="translate(-13.82 -271.34)"/><path class="cls-1" d="M108.7,362.61A6,6,0,0,0,108,359l-2.61-6.3-.06-.16c-.92-2.25-1.87-5.88-3.58-7.67a32.13,32.13,0,0,0-6.2-.18,1.05,1.05,0,0,0-.73.29,8.47,8.47,0,0,0-.69,2.17A91.09,91.09,0,0,0,91,362.61C96.87,362.91,102.79,362.64,108.7,362.61Z" transform="translate(-13.82 -271.34)"/><path class="cls-1" d="M91.5,326.9a85.51,85.51,0,0,0-9.4-9.71A11.12,11.12,0,0,0,79,315.06c-2.43-.92-5,.07-7.51.91-6.94,2.4-14.43,3.59-21.46,1.55-1.72-.5-3.44-1.19-5.2-1a9.63,9.63,0,0,0-4.58,2.18c-10.56,8-16.35,21.79-21.39,35.05-.5,1.33-1,2.67-1.42,4a22.43,22.43,0,0,0-.84,3.82H82.83A96.29,96.29,0,0,1,91.5,326.9Z" transform="translate(-13.82 -271.34)"/><path class="cls-1" d="M38.17,298.07a20,20,0,0,0,1.45,2.39,17.41,17.41,0,0,0,2.32,2.38c3.12,2.83,7.1,7.41,11.54,5.86-.76-1.55-2.06-4.69-2.81-6.24a7.62,7.62,0,0,1-1.12-4.5,2,2,0,0,1,.72-1.33,2,2,0,0,1,1.23-.22,3.34,3.34,0,0,1,2.17.63,4.06,4.06,0,0,1,.88,1.41,74,74,0,0,1,3.56,8.72.83.83,0,0,0,.37.5.73.73,0,0,0,1-.36,83.33,83.33,0,0,1,5-8.43,13.34,13.34,0,0,1,2.41-3,4.18,4.18,0,0,1,3.33-1.12,1.08,1.08,0,0,1,.52.22,1.15,1.15,0,0,1,.31.56c.38,1.29-.29,2.66-.94,3.79L65.33,308a.83.83,0,0,0-.1.58.73.73,0,0,0,.84.64c5.45-1.32,11.8-2.66,15.78-7.53A29.69,29.69,0,0,0,84.24,298l2-3.3c.88-1.47,1.79-3.3,1.18-4.94a1.59,1.59,0,0,0-.63-.84h-51a9.65,9.65,0,0,0,.14,3.63A21.45,21.45,0,0,0,38.17,298.07Z" transform="translate(-13.82 -271.34)"/><path class="cls-1" d="M81.35,371.44c-.77-1.15-2.22-1.25-3.49-1.25l-58.7,0H16.05c-3.86,11.54-2.41,24.44,2,35.49a29.26,29.26,0,0,0,3.45,6.56,23.3,23.3,0,0,0,4.71,4.65C37,425.12,50.7,425.74,63.61,426c8.43.16,17,.26,24.83-4.3A397.23,397.23,0,0,1,82,374,5.3,5.3,0,0,0,81.35,371.44Z" transform="translate(-13.82 -271.34)"/><text class="cls-2" transform="translate(107.31 154.72)">C<tspan class="cls-3" x="113.04" y="0">r</tspan><tspan x="178.8" y="0">edit!</tspan></text></svg>