<svg id="Capa_1" data-name="Capa 1" xmlns="http://www.w3.org/2000/svg" viewBox="0 0 482.79 482.79"><defs><style>.cls-1{fill:#999;}</style></defs><title>account</title><path id="Icon_ionic-md-contact" data-name="Icon ionic-md-contact" class="cls-1" d="M298,179.49c-133.32,0-241.4,108.08-241.4,241.4S164.68,662.29,298,662.29s241.4-108.08,241.4-241.4C539,287.73,431.16,179.88,298,179.49Zm0,72.41a72.42,72.42,0,1,1-72.41,72.42A72.41,72.41,0,0,1,298,251.9Zm0,348.64a175.85,175.85,0,0,1-144.84-77.31C154.32,475,249.72,448.37,298,448.37S441.6,475,442.84,523.23A176.16,176.16,0,0,1,298,600.54Z" transform="translate(-56.6 -179.49)"/></svg>