<svg id="Capa_1" data-name="Capa 1" xmlns="http://www.w3.org/2000/svg" xmlns:xlink="http://www.w3.org/1999/xlink" viewBox="0 0 532.6 173.83"><defs><style>.cls-1{fill:url(#Degradado_sin_nombre_2);}</style><linearGradient id="Degradado_sin_nombre_2" x1="4.06" y1="831.08" x2="4.06" y2="825.4" gradientTransform="matrix(96.86, 0, 0, -30.59, -95.86, 25758.71)" gradientUnits="userSpaceOnUse"><stop offset="0" stop-color="#e52923"/><stop offset="1" stop-color="#f07f19"/></linearGradient></defs><title>party</title><path id="Unión_3" data-name="Unión 3" class="cls-1" d="M491.53,506.84V495.42a23.66,23.66,0,0,0,7.54,1.39,15.61,15.61,0,0,0,14.44-11.49l6.37-15.07-31.07-79.4H503l21.52,61.22q.39,1.15,1.63,6.06h.46c.27-1.24.78-3.21,1.56-5.9l22.61-61.37h13.21l-36.6,92.29q-9.78,24.69-27.5,24.7A28.82,28.82,0,0,1,491.53,506.84ZM31.34,407.9a73.87,73.87,0,1,1,73.87,73.87A73.87,73.87,0,0,1,31.34,407.9ZM311.28,466a21.81,21.81,0,0,1-6.72-16.7q0-22.3,26.26-26L354.69,420q0-20.28-16.4-20.27a39.18,39.18,0,0,0-26,9.79V396.43a49.37,49.37,0,0,1,27-7.46q28,0,28.05,29.68V470.4H354.69V458h-.31a26.72,26.72,0,0,1-24.48,14.29A26.11,26.11,0,0,1,311.28,466Zm24.2-33.18a31.24,31.24,0,0,0-13.36,4.39,12.68,12.68,0,0,0-4.51,11.15,12.16,12.16,0,0,0,4.16,9.52,16.1,16.1,0,0,0,11.07,3.69,20.47,20.47,0,0,0,15.66-6.64,23.76,23.76,0,0,0,6.17-16.82v-7.92Zm115.35,16V401.73H437.15V390.85h13.68V371.43l12.74-4.12v23.54h20.05v10.88H463.57v44.82A18.68,18.68,0,0,0,466.29,458a10.83,10.83,0,0,0,9,3.4,13.36,13.36,0,0,0,8.31-2.63v10.87a24.59,24.59,0,0,1-11.89,2.49q-20.91,0-20.91-23.3ZM391.4,470.4V390.85h12.74v16.39h.31a27.76,27.76,0,0,1,8.32-13.07,19,19,0,0,1,12.5-4.7,20.73,20.73,0,0,1,7.61,1.09v13.21a15.52,15.52,0,0,0-9.66-2.57,16.27,16.27,0,0,0-13.64,7.69,35.62,35.62,0,0,0-5.47,21V470.4Zm-162.91,0V359H259.1a40.39,40.39,0,0,1,27.69,8.7,31.08,31.08,0,0,1,9.83,24.55,33.78,33.78,0,0,1-10.91,26,41.71,41.71,0,0,1-29.48,10.1H241.54v42.11Zm13.07-53.92h13.68a30.56,30.56,0,0,0,20.62-6.17A21.85,21.85,0,0,0,283,392.87q0-22.06-26.1-22.07H241.56Z" transform="translate(-31.34 -334.03)"/></svg>