<svg id="Capa_1" data-name="Capa 1" xmlns="http://www.w3.org/2000/svg" xmlns:xlink="http://www.w3.org/1999/xlink" viewBox="0 0 818 818"><defs><style>.cls-1{fill:#247a46;}.cls-2,.cls-3{fill:none;}.cls-3{stroke:#fff;stroke-width:18px;}.cls-4{fill:url(#Degradado_sin_nombre_2);}.cls-5{fill:#fff;}</style><linearGradient id="Degradado_sin_nombre_2" x1="6240.4" y1="7741.28" x2="6240.4" y2="7740.28" gradientTransform="matrix(92.66, 53.5, 53.5, -92.66, -992054, 383784.91)" gradientUnits="userSpaceOnUse"><stop offset="0" stop-color="#ffd500"/><stop offset="1" stop-color="#ff0101"/></linearGradient></defs><title>fiscal-icon</title><circle id="Elipse_24" data-name="Elipse 24" class="cls-1" cx="409" cy="409" r="409"/><g id="Elipse_26" data-name="Elipse 26"><circle class="cls-2" cx="408.5" cy="408.5" r="357.5"/><circle class="cls-3" cx="408.5" cy="408.5" r="348.5"/></g><circle id="Elipse_27" data-name="Elipse 27" class="cls-4" cx="342.5" cy="349.5" r="53.5"/><path id="Trazado_47" data-name="Trazado 47" class="cls-5" d="M7377.94,7056.78v13c0,11.05-6.7,20-15,20H7091.46c-8.26,0-15-8.95-15-20v-13c0-11,6.7-20,15-20H7363C7371.24,7036.78,7377.94,7045.74,7377.94,7056.78Z" transform="translate(-6790.5 -6790.5)"/><path id="Trazado_48" data-name="Trazado 48" class="cls-5" d="M7100.16,7038.33l12.81,2.27c10.88,1.92,18.34,11.18,16.66,20.68l-55.17,312.31c-1.68,9.5-11.86,15.65-22.74,13.73l-12.8-2.27c-10.88-1.92-18.34-11.18-16.66-20.68l55.17-312.31C7079.1,7042.56,7089.28,7036.41,7100.16,7038.33Z" transform="translate(-6790.5 -6790.5)"/><path id="Trazado_49" data-name="Trazado 49" class="cls-5" d="M7294.58,7202.78v13c0,11.05-5.36,20-12,20H7065.46c-6.6,0-12-8.95-12-20v-13c0-11,5.36-20,12-20h217.15C7289.22,7182.78,7294.58,7191.74,7294.58,7202.78Z" transform="translate(-6790.5 -6790.5)"/></svg>