<svg id="Capa_1" data-name="Capa 1" xmlns="http://www.w3.org/2000/svg" viewBox="0 0 502.2 621.72"><defs><style>.cls-1{fill:#fff;}.cls-2{fill:#5a5a5a;}</style></defs><title>Bag-strong-gray</title><path class="cls-1" d="M38.56,340.06c3.21,0,3.22-5,0-5s-3.23,5,0,5Z" transform="translate(-36.14 -69.92)"/><path class="cls-2" d="M537.22,441.2c-.15,20.68,1.26,41.71,1.11,62.39-.08,11.23-1.7,22.12-2.8,33.3a184.05,184.05,0,0,1-27.62,80.35c-9,14.09-20.46,27.42-39.4,28.16-3.05-9.71-5.53-20.91-8.76-31.32a116.9,116.9,0,0,1-2.91-12c-.17-.89-.35-1.79-.52-2.68-3-15.38-7.13-30.16-10.14-45.55A236.75,236.75,0,0,1,443,529.05a681,681,0,0,1-1.65-87.85h95.88Z" transform="translate(-36.14 -69.92)"/><path class="cls-2" d="M531.64,387.46c2.4,5.25,4.85,10.72,3.34,16.48-29.73.13-59.46,1.34-89.16,0a381.85,381.85,0,0,1,16.09-70.2c.48-1.42,2.14-8.91,3.46-9.83a6,6,0,0,1,3.7-1.34,178.93,178.93,0,0,1,31.14.83c8.61,8.13,13.38,24.6,18.05,34.8l.33.71Z" transform="translate(-36.14 -69.92)"/><path class="cls-2" d="M401.23,198a407.8,407.8,0,0,1,47.25,44,403.51,403.51,0,0,0-43.56,157.41h-333a93,93,0,0,1,4.2-17.33c2.08-6.21,4.62-12.29,7.15-18.31,25.35-60.14,54.46-122.9,107.54-158.93,7-4.76,14.65-9.08,23-9.89,8.85-.87,17.53,2.26,26.14,4.52,35.38,9.25,73,3.85,107.92-7,12.34-3.81,25.54-8.3,37.76-4.13C391.38,190.38,396.4,194.16,401.23,198Z" transform="translate(-36.14 -69.92)"/><path class="cls-2" d="M427.78,73.74c3.08,7.46-1.52,15.73-5.94,22.43L412,111.09a134.41,134.41,0,0,1-12,16.4c-20,22.06-51.93,28.13-79.36,34.13a3.63,3.63,0,0,1-3.7-5.55q12.22-19.5,24.43-39c3.25-5.19,6.64-11.35,4.74-17.22a5.23,5.23,0,0,0-1.58-2.53,5.51,5.51,0,0,0-2.62-1c-5.91-.89-11.94,1.43-16.74,5.1s-8.54,8.59-12.09,13.55c-9.63,13.46-17.86,24.51-25.35,38.23a3.87,3.87,0,0,1-7.11-.63c-4.72-14-10.95-25.5-17.86-39.54-1.16-2.37-2.42-4.79-4.45-6.43-3-2.42-7.08-2.67-10.89-2.82-2.11-.08-4.35-.13-6.18,1-2.05,1.21-3.17,3.62-3.63,6-1.35,7.1,2.19,14.12,5.61,20.43,3.81,7,10.32,21.26,14.13,28.29-22.32,7-42.31-13.74-58-26.57a83.33,83.33,0,0,1-11.65-10.8,84.45,84.45,0,0,1-7.3-10.86c-4.73-7.87-9.54-16-11.73-24.88A39.81,39.81,0,0,1,168,69.92H424.61A7.37,7.37,0,0,1,427.78,73.74Z" transform="translate(-36.14 -69.92)"/><path class="cls-2" d="M400.63,455.57a1641.06,1641.06,0,0,0,32.51,216.34C394,692.59,350.69,692.14,308.3,691.38c-64.93-1.18-133.79-4-187.87-41.19-8.7-6-16.94-12.82-23.68-21.08-7.26-8.87-12.66-19.2-17.36-29.76C57.1,549.24,49.8,490.74,69.21,438.43h15.6l295.12-.14c6.37,0,13.7.46,17.56,5.69C399.88,447.21,400.29,451.51,400.63,455.57Z" transform="translate(-36.14 -69.92)"/></svg>