<svg id="Capa_1" data-name="Capa 1" xmlns="http://www.w3.org/2000/svg" viewBox="0 0 484.53 606.16"><defs><style>.cls-1{fill:#999;}</style></defs><title>notification</title><g id="Icon_ionic-ios-notifications" data-name="Icon ionic-ios-notifications"><path id="Unión_5" data-name="Unión 5" class="cls-1" d="M224.52,643.65H370.43c0,47-25.86,80.32-72.88,80.32S224.52,690.64,224.52,643.65Zm73.93-28.76H85.72a30.17,30.17,0,0,1-24.09-48.21c23.34-30.92,69.24-48.76,69.24-186.51,0-141.36,62.27-198,120.67-211.83C257,167,261,165,261,159.4v-4.31a37,37,0,1,1,73.92,0v4.31c0,5.76,3.94,7.59,9.39,8.94C402.45,182,465,238.81,465,380.17c0,137.75,45.9,155.76,69.24,186.51a30.18,30.18,0,0,1-24,48.21Z" transform="translate(-55.64 -117.81)"/></g></svg>