<svg id="Capa_1" data-name="Capa 1" xmlns="http://www.w3.org/2000/svg" viewBox="0 0 170.48 213.18"><defs><style>.cls-1{fill:gray;}</style></defs><title>bell</title><g id="Icon_ionic-ios-notifications" data-name="Icon ionic-ios-notifications"><path id="Unión_1" data-name="Unión 1" class="cls-1" d="M934.06,618.33H985.4c0,16.53-9.1,28.26-25.65,28.26S934.06,634.85,934.06,618.33Zm26-10.13H885.25a10.61,10.61,0,0,1-8.48-17c8.21-10.89,24.36-17.17,24.36-65.64,0-49.74,21.92-69.69,42.46-74.53,1.92-.49,3.31-1.18,3.31-3.15v-1.51a13,13,0,1,1,26,0v1.51c0,2,1.38,2.66,3.3,3.15,20.48,4.8,42.47,24.79,42.47,74.53,0,48.47,16.15,54.82,24.36,65.64a10.62,10.62,0,0,1-8.46,17Z" transform="translate(-874.67 -433.41)"/></g></svg>