<svg id="Capa_1" data-name="Capa 1" xmlns="http://www.w3.org/2000/svg" xmlns:xlink="http://www.w3.org/1999/xlink" viewBox="0 0 533.1 533.1"><defs><style>.cls-1{stroke:#fff;stroke-width:8px;fill:url(#Degradado_sin_nombre_13);}.cls-1,.cls-2{stroke-miterlimit:10;}.cls-2{fill:#3c3c3b;stroke:#1d1d1b;}.cls-3{fill:url(#Degradado_sin_nombre_6);}.cls-4{fill:#36a9e1;}.cls-5{fill:#575756;}</style><linearGradient id="Degradado_sin_nombre_13" x1="4" y1="266.55" x2="529.1" y2="266.55" gradientUnits="userSpaceOnUse"><stop offset="0" stop-color="#757575"/><stop offset="0.63" stop-color="#575756"/></linearGradient><linearGradient id="Degradado_sin_nombre_6" x1="164.11" y1="251.71" x2="341.61" y2="251.71" gradientTransform="translate(346.28 -31.31) rotate(35.07)" gradientUnits="userSpaceOnUse"><stop offset="0" stop-color="#e52421"/><stop offset="1" stop-color="#ed6d1a"/></linearGradient></defs><title>adding</title><circle class="cls-1" cx="266.55" cy="266.55" r="262.55"/><rect class="cls-2" x="185.46" y="304.65" width="220.64" height="330.85" rx="26.67" transform="translate(315.2 -286.71) rotate(37.2)"/><path class="cls-3" d="M460.87,396.25,437,288.63a7.87,7.87,0,0,0-8.55-6L319.14,296.77a6.35,6.35,0,0,0-5.49,7.83,7.88,7.88,0,0,0,8.56,6L424.5,297.36l22.32,100.71a7.88,7.88,0,0,0,8.56,6A6.35,6.35,0,0,0,460.87,396.25Z" transform="translate(-29.23 -203.53)"/><rect class="cls-4" x="262.46" y="410.73" width="127.35" height="4.62" rx="2.31" transform="translate(286.89 -316.67) rotate(37.2)"/><rect class="cls-4" x="247.46" y="422.05" width="77.25" height="4.62" rx="2.31" transform="translate(285.58 -290.15) rotate(37.2)"/><rect class="cls-4" x="230.06" y="454.64" width="96.84" height="4.62" rx="2.31" transform="translate(303.74 -278.92) rotate(37.2)"/><rect class="cls-5" x="225.64" y="529.44" width="32.59" height="23.11" rx="8.91" transform="translate(347.12 -239.72) rotate(37.2)"/></svg>