<svg id="Capa_1" data-name="Capa 1" xmlns="http://www.w3.org/2000/svg" xmlns:xlink="http://www.w3.org/1999/xlink" viewBox="0 0 550.67 477.33"><defs><style>.cls-1{fill:url(#Degradado_sin_nombre_26);}.cls-2{fill:#fff;}</style><linearGradient id="Degradado_sin_nombre_26" x1="106.1" y1="524.65" x2="444.56" y2="-47.32" gradientUnits="userSpaceOnUse"><stop offset="0" stop-color="#ea5254"/><stop offset="1" stop-color="#be1622"/></linearGradient></defs><title>help</title><rect class="cls-1" width="550.67" height="477.33" rx="36"/><path class="cls-2" d="M297.64,205.84C183.9,205.84,91.85,298.94,91.85,414s92,208.16,205.79,208.16S503.43,529.06,503.43,414,411.39,205.84,297.64,205.84Zm0,388.57c-98.34,0-178.35-80.93-178.35-180.41s80-180.41,178.35-180.41S476,314.52,476,414,396,594.41,297.64,594.41Z" transform="translate(-21.67 -175.33)"/><path class="cls-2" d="M292.42,459.49c-9.75,0-17.63,8.22-17.63,18.08,0,9.62,7.65,18.07,17.63,18.07a18.08,18.08,0,0,0,0-36.15Z" transform="translate(-21.67 -175.33)"/><path class="cls-2" d="M295.43,322.67c-31.32,0-45.7,18.77-45.7,31.45,0,9.15,7.65,13.37,13.92,13.37,12.53,0,7.42-18.07,31.09-18.07,11.6,0,20.88,5.17,20.88,16,0,12.68-13,19.95-20.65,26.52-6.73,5.87-15.54,15.49-15.54,35.68,0,12.2,3.24,15.72,12.76,15.72,11.37,0,13.69-5.16,13.69-9.62,0-12.2.23-19.25,13-29.34,6.26-4.93,26-20.89,26-42.95S325.13,322.67,295.43,322.67Z" transform="translate(-21.67 -175.33)"/></svg>