<svg id="Capa_1" data-name="Capa 1" xmlns="http://www.w3.org/2000/svg" viewBox="0 0 526.03 500.38"><defs><style>.cls-1{fill:#f39200;}.cls-2{fill:#f9b233;}.cls-3{fill:#f9bd5f;}</style></defs><title>home</title><rect class="cls-1" x="46.28" y="155.23" width="421.78" height="345.15" rx="24.66"/><path class="cls-1" d="M543.89,301.79H63.07c-12.49,0-22.6.86-22.6,1.91v21.23c0,1.05,10.11,1.91,22.6,1.91H543.89c12.48,0,22.6-.86,22.6-1.91V303.7C566.49,302.65,556.37,301.79,543.89,301.79Z" transform="translate(-40.47 -140.38)"/><polyline class="cls-1" points="263.01 0 0 161.42 526.03 161.42"/><rect class="cls-1" x="426.53" y="50.96" width="41.53" height="74.67"/><rect class="cls-2" x="210.35" y="327.8" width="105.33" height="172.58" rx="6.05"/><rect class="cls-2" x="116.98" y="186.46" width="60.33" height="60.33" rx="10.22"/><rect class="cls-3" x="125.11" y="194.6" width="44.06" height="44.06" rx="5.89"/><rect class="cls-3" x="233.33" y="341.18" width="59.36" height="150.22" rx="5.89"/></svg>