<svg id="Capa_1" data-name="Capa 1" xmlns="http://www.w3.org/2000/svg" viewBox="0 0 547.95 556.16"><defs><style>.cls-1{fill:#1d1d1b;}.cls-2{fill:#575756;}.cls-3{fill:#f9b233;}.cls-4{fill:#ffed00;}</style></defs><title>notifications</title><rect class="cls-1" width="547.95" height="556.16" rx="29.45"/><circle class="cls-2" cx="273.97" cy="278.08" r="244.89"/><path class="cls-3" d="M501.1,508.78a18.76,18.76,0,0,1-13.9,18.31l-98.79,26.48a48,48,0,0,1-91.86,24.61l-98.79,26.48A18.81,18.81,0,0,1,176.65,577a158.55,158.55,0,0,0,21.09-79,157.92,157.92,0,0,0-5.4-41l-17.86-66.83A116.91,116.91,0,0,1,225.24,261l-6.68-24.95a34.36,34.36,0,1,1,66.37-17.8l6.69,25a116.5,116.5,0,0,1,108.52,86.5L418,396.59a159.17,159.17,0,0,0,73.68,96A18.57,18.57,0,0,1,501.1,508.78Zm-17.51,5a5,5,0,0,0,3.77-5,4.79,4.79,0,0,0-2.54-4.29A173,173,0,0,1,404.7,400.18l-17.87-66.84a102.93,102.93,0,0,0-99.42-76.45h-1.06c-1.51,0-3,.1-4.55.19a104.44,104.44,0,0,0-21.23,3.34c-2,.53-3.94,1.31-5.92,2a101.92,101.92,0,0,0-18.1,7.78l-.12.05a103.2,103.2,0,0,0-48.68,116.46l17.86,66.83a171.31,171.31,0,0,1,5.88,44.54,172.42,172.42,0,0,1-23,85.87,4.93,4.93,0,0,0,.34,5.63,5,5,0,0,0,5.33,1.84l289.41-77.56Zm-134,78.6A34.38,34.38,0,0,0,375,557.19l-65,17.42A34.44,34.44,0,0,0,349.56,592.42ZM277.49,243.54l-5.81-21.7a20.61,20.61,0,1,0-39.82,10.68l5.8,21.65c.19-.09.41-.16.61-.25,2.56-1.18,5.17-2.25,7.83-3.25.66-.25,1.3-.49,2-.73,2.55-.9,5.13-1.72,7.76-2.44.42-.12.74-.26,1.25-.4s1-.2,1.55-.33c2.33-.59,4.67-1.1,7.05-1.56,1.13-.21,2.26-.4,3.4-.58q3.19-.49,6.44-.83C276.2,243.73,276.83,243.6,277.49,243.54Z" transform="translate(-30.51 -142.12)"/><path class="cls-3" d="M487.36,508.78a5,5,0,0,1-3.77,5h0L194.18,591.39a5,5,0,0,1-5.33-1.84,4.93,4.93,0,0,1-.34-5.63,172.42,172.42,0,0,0,23-85.87,171.31,171.31,0,0,0-5.88-44.54l-17.86-66.83a103.2,103.2,0,0,1,48.68-116.46l.12-.05a101.92,101.92,0,0,1,18.1-7.78c2-.66,3.89-1.44,5.92-2a104.44,104.44,0,0,1,21.23-3.34c1.51-.09,3-.18,4.55-.19h1.06a102.93,102.93,0,0,1,99.42,76.45l17.87,66.84a173,173,0,0,0,80.12,104.31A4.79,4.79,0,0,1,487.36,508.78Z" transform="translate(-30.51 -142.12)"/><path class="cls-4" d="M375,557.19a34.37,34.37,0,0,1-65,17.42Z" transform="translate(-30.51 -142.12)"/><path class="cls-3" d="M271.68,221.84l5.81,21.7c-.66.06-1.29.19-1.95.26q-3.24.33-6.44.83c-1.14.18-2.27.37-3.4.58-2.38.46-4.72,1-7.05,1.56-.52.13-1,.2-1.55.33s-.83.28-1.25.4c-2.63.72-5.21,1.54-7.76,2.44-.69.24-1.33.48-2,.73-2.66,1-5.27,2.07-7.83,3.25-.2.09-.42.16-.61.25l-5.8-21.65a20.61,20.61,0,1,1,39.82-10.68Z" transform="translate(-30.51 -142.12)"/></svg>