<svg id="Capa_1" data-name="Capa 1" xmlns="http://www.w3.org/2000/svg" xmlns:xlink="http://www.w3.org/1999/xlink" viewBox="0 0 534.78 534.78"><defs><style>.cls-1{stroke:#fff;stroke-miterlimit:10;stroke-width:8px;fill:url(#Degradado_sin_nombre_11);}.cls-2{fill:#fff;}</style><linearGradient id="Degradado_sin_nombre_11" x1="4" y1="267.39" x2="530.78" y2="267.39" gradientUnits="userSpaceOnUse"><stop offset="0" stop-color="#009fe3"/><stop offset="1" stop-color="#1d71b8"/></linearGradient></defs><title>Logout</title><circle class="cls-1" cx="267.39" cy="267.39" r="263.39"/><path class="cls-2" d="M363.81,313.17a9.25,9.25,0,0,0,3.76,13.12c41.85,22.56,69.94,64.73,69.94,112.92,0,71.88-62.75,130.36-139.87,130.36S157.77,511.09,157.77,439.21c0-48.22,28.12-90.37,69.94-112.92a9.26,9.26,0,0,0,3.76-13.12,10.74,10.74,0,0,0-14.08-3.51c-48.13,25.95-80.23,74.41-80.23,129.55,0,82.67,71.77,149.57,160.48,149.57s160.48-66.9,160.48-149.57c0-55.16-32.13-103.61-80.23-129.55A10.73,10.73,0,0,0,363.81,313.17Z" transform="translate(-30.25 -153.56)"/><rect class="cls-2" x="253.18" y="99.56" width="28.42" height="154.52" rx="14.21"/></svg>