<svg id="Capa_1" data-name="Capa 1" xmlns="http://www.w3.org/2000/svg" viewBox="0 0 512.01 512"><defs><style>.cls-1{fill:#65656b;}</style></defs><title>search</title><path class="cls-1" d="M547.38,640.53l-145.6-145.6A201.67,201.67,0,0,0,447,367.61C447,255.87,356,164.94,244.3,164.94S41.63,255.87,41.63,367.61,132.56,570.28,244.3,570.28a201.67,201.67,0,0,0,127.32-45.19l145.6,145.6a21.33,21.33,0,1,0,30.16-30.16ZM244.3,527.61c-88.23,0-160-71.76-160-160s71.77-160,160-160,160,71.77,160,160S332.54,527.61,244.3,527.61Z" transform="translate(-41.63 -164.94)"/></svg>