<svg id="Capa_1" data-name="Capa 1" xmlns="http://www.w3.org/2000/svg" viewBox="0 0 482.79 482.79"><defs><style>.cls-1{fill:#999;}</style></defs><title>light</title><g id="Icon_ionic-ios-sunny" data-name="Icon ionic-ios-sunny"><g id="Grupo_1" data-name="Grupo 1"><path id="Trazado_1" data-name="Trazado 1" class="cls-1" d="M298,572.93a17.88,17.88,0,0,0-17.88,17.87h0v53.61a17.88,17.88,0,0,0,35.76,0V590.8A17.88,17.88,0,0,0,298,572.93Z" transform="translate(-56.6 -179.49)"/><path id="Trazado_2" data-name="Trazado 2" class="cls-1" d="M298,179.49a17.89,17.89,0,0,0-17.88,17.88h0V251a17.88,17.88,0,1,0,35.76,0V197.37A17.89,17.89,0,0,0,298,179.49Z" transform="translate(-56.6 -179.49)"/><path id="Trazado_3" data-name="Trazado 3" class="cls-1" d="M146,420.89A17.89,17.89,0,0,0,128.09,403H74.48a17.88,17.88,0,0,0,0,35.76h53.61A17.89,17.89,0,0,0,146,420.89Z" transform="translate(-56.6 -179.49)"/><path id="Trazado_4" data-name="Trazado 4" class="cls-1" d="M521.52,403H467.91a17.88,17.88,0,0,0,0,35.76h53.61a17.88,17.88,0,1,0,0-35.76Z" transform="translate(-56.6 -179.49)"/><path id="Trazado_5" data-name="Trazado 5" class="cls-1" d="M177.89,523.14a17.87,17.87,0,0,0-12.65,5.22l-38,38a17.89,17.89,0,0,0,25.3,25.29l38-38a17.88,17.88,0,0,0-12.65-30.52Z" transform="translate(-56.6 -179.49)"/><path id="Trazado_6" data-name="Trazado 6" class="cls-1" d="M418.11,318.64a17.87,17.87,0,0,0,12.65-5.22l38-38a17.89,17.89,0,0,0-25.3-25.29l-38,38a17.88,17.88,0,0,0,12.65,30.52Z" transform="translate(-56.6 -179.49)"/><path id="Trazado_7" data-name="Trazado 7" class="cls-1" d="M152.58,250.17a17.89,17.89,0,0,0-25.3,25.3l38,38a17.9,17.9,0,0,0,25.31-25.31Z" transform="translate(-56.6 -179.49)"/><path id="Trazado_8" data-name="Trazado 8" class="cls-1" d="M430.77,528.36a17.89,17.89,0,0,0-25.38,25.22l.08.08,38,38a17.9,17.9,0,0,0,25.31-25.31Z" transform="translate(-56.6 -179.49)"/></g><path id="Trazado_9" data-name="Trazado 9" class="cls-1" d="M298,309.48A111.41,111.41,0,1,0,409.41,420.89,111.41,111.41,0,0,0,298,309.48Z" transform="translate(-56.6 -179.49)"/></g></svg>