<svg id="Capa_1" data-name="Capa 1" xmlns="http://www.w3.org/2000/svg" xmlns:xlink="http://www.w3.org/1999/xlink" viewBox="0 0 493.19 493.19"><defs><style>.cls-1{fill:url(#Degradado_sin_nombre_2);}</style><linearGradient id="Degradado_sin_nombre_2" x1="2.45" y1="837.07" x2="14.89" y2="825.36" gradientTransform="matrix(39.65, 0, 0, -39.65, -38.65, 33383.73)" gradientUnits="userSpaceOnUse"><stop offset="0" stop-color="#2b2b2b"/><stop offset="1" stop-color="#8b8b8b"/></linearGradient></defs><title>notificatino-icon</title><path id="Unión_6" data-name="Unión 6" class="cls-1" d="M51.4,420.89c0-136.17,110.36-246.58,246.53-246.6H298c136.17,0,246.58,110.36,246.6,246.53v.07c0,136.17-110.36,246.58-246.53,246.6H298C161.83,667.51,51.42,557.14,51.4,421ZM147.09,270A213.51,213.51,0,1,0,298,207.48,211.91,211.91,0,0,0,147.09,270ZM257.9,535h84.45c0,27.2-14.93,46.48-42.17,46.48S257.9,562.29,257.9,535Zm42.79-16.67H177.54a17.41,17.41,0,0,1-13.95-27.87c13.5-17.9,40.08-28.25,40.08-108,0-81.83,36.08-114.63,69.81-122.6,3.15-.79,5.44-1.93,5.44-5.18v-2.51a21.39,21.39,0,1,1,42.78,0v2.55c0,3.33,2.29,4.39,5.45,5.17C360.82,267.85,397,300.75,397,382.57c0,79.71,26.57,90.15,40.08,108a17.42,17.42,0,0,1-13.86,27.87Z" transform="translate(-51.4 -174.29)"/></svg>