<svg id="Capa_1" data-name="Capa 1" xmlns="http://www.w3.org/2000/svg" viewBox="0 0 486.95 452.23"><defs><style>.cls-1{fill:#999;}</style></defs><title>add</title><g id="Icon_ionic-ios-create" data-name="Icon ionic-ios-create"><path id="Unión_4" data-name="Unión 4" class="cls-1" d="M63.8,452.2A63.82,63.82,0,0,1,0,388.4V145A63.81,63.81,0,0,1,63.8,81.2H325.56a4.37,4.37,0,0,1,3.05,7.39L168.2,248.9l-.86.87a17.47,17.47,0,0,0-5.1,12.29V307.2a17.47,17.47,0,0,0,17.38,17.38h45a17.43,17.43,0,0,0,12.29-5.1l.86-.87L398.37,158.2a4.37,4.37,0,0,1,7.4,3V388.38A63.84,63.84,0,0,1,342,452.2ZM191.15,304.27a8.6,8.6,0,0,1-8.58-8.58v-28.8a8.47,8.47,0,0,1,2.51-6.08L404.58,41.29a8.59,8.59,0,0,1,12.16,0h0l28.78,28.79a8.59,8.59,0,0,1,0,12.15h0L225.92,301.71a8.74,8.74,0,0,1-6.2,2.5Zm272.54-246L440.17,34.63,428.81,23.29a4.38,4.38,0,0,1,0-6.09L441.1,4.83A18.84,18.84,0,0,1,453.69,0,19.34,19.34,0,0,1,466.2,4.75l.2.22,15.66,15.66A19.69,19.69,0,0,1,487,33.33,18.57,18.57,0,0,1,482.17,46L469.89,58.3a4.32,4.32,0,0,1-6.11.09l-.09-.09Z" transform="translate(0 0.03)"/></g></svg>