<svg id="Capa_1" data-name="Capa 1" xmlns="http://www.w3.org/2000/svg" viewBox="0 0 487.3 420.32"><defs><style>.cls-1{fill:#999;}</style></defs><title>credits</title><path id="Sustracción_1" data-name="Sustracción 1" class="cls-1" d="M451.63,420.34h-416A35.67,35.67,0,0,1,0,384.7V149.29A35.67,35.67,0,0,1,35.61,113.7H451.55a35.85,35.85,0,0,1,35.73,35.59V384.7A35.67,35.67,0,0,1,451.63,420.34ZM57.72,231a28.87,28.87,0,1,0,28.91,28.87A28.88,28.88,0,0,0,57.72,231ZM424.24,85.29H62.92a14.22,14.22,0,0,1,0-28.42H424.24a14.22,14.22,0,0,1,1.84,28.38l-.38,0h-.55ZM393,28.44H94.17a13.17,13.17,0,0,1-13-13V13a13,13,0,0,1,13-13H393a13,13,0,0,1,13,13v2.44A13.17,13.17,0,0,1,393,28.44Z" transform="translate(0.02 -0.02)"/></svg>